<svg xmlns="http://www.w3.org/2000/svg" width="68" height="57" viewBox="0 0 68 57">
  <path fill="#1EA2B1" fill-rule="evenodd" d="M61 8.5H46V4c0-1.65-1.35-3-3-3H25c-1.65 0-3 1.35-3 3v4.5H7c-3.315 0-6 2.685-6 6v36c0 3.315 2.685 6 6 6h54c3.315 0 6-2.685 6-6v-36c0-3.3-2.7-6-6-6zM25 4h18v4.5H25V4zm23.625 28.14c-2.85 2.85-7.035 3.54-10.545 2.07-.15-.06-.3-.15-.45-.21L22.06 49.555a3.16 3.16 0 0 1-4.485 0 3.16 3.16 0 0 1 0-4.485l15.57-15.57-.225-.45a9.639 9.639 0 0 1 11.67-12.96c.09.03.165.06.255.09l-5.655 5.655 1.47 4.635 4.62 1.47 5.655-5.655c.03.09.06.165.09.255a9.595 9.595 0 0 1-2.4 9.6z"/>
</svg>
