<svg xmlns="http://www.w3.org/2000/svg" width="94" height="91" viewBox="0 0 94 91">
  <g fill="none" fill-rule="evenodd">
    <rect width="144" height="144" transform="translate(-33 -19)"/>
    <path fill="#1EA2B1" d="M66.21 18.5a1.5 1.5 0 0 1 0-3c6.627 0 12 5.373 12 12a1.5 1.5 0 0 1-3 0 9 9 0 0 0-9-9zm0-18a1.5 1.5 0 0 0 0 3c13.255 0 24 10.745 24 24a1.5 1.5 0 0 0 3 0c0-14.912-12.088-27-27-27zm0 7.5a1.5 1.5 0 0 0 0 3c9.113 0 16.5 7.387 16.5 16.5a1.5 1.5 0 0 0 3 0c0-10.77-8.73-19.5-19.5-19.5zM23.715 20a1.86 1.86 0 0 1 .105-1.32 30.6 30.6 0 0 1 4.155-6.465 1.23 1.23 0 0 1 1.875 1.59 27 27 0 0 0-2.43 3.45A37.5 37.5 0 0 1 75.705 46.76a1.5 1.5 0 0 1-1.23 1.74h-.255a1.5 1.5 0 0 1-1.5-1.26 34.425 34.425 0 0 0-44.715-27 27.54 27.54 0 0 0 4.185 1.695 1.23 1.23 0 0 1-.69 2.325 30.66 30.66 0 0 1-6.975-3.195 1.86 1.86 0 0 1-.81-1.065zm-9.63 50.4a1.23 1.23 0 0 0-.96 1.5 27.66 27.66 0 0 1 .54 4.77 34.5 34.5 0 0 1 5.46-52.02l1.5-.96a1.502 1.502 0 1 0-1.68-2.49l-1.5.93A37.5 37.5 0 0 0 11.1 78.32a26.715 26.715 0 0 1-3.945-.48 1.23 1.23 0 0 0-1.26 1.89c.179.273.46.462.78.525 1.975.398 3.985.594 6 .585h1.74a1.86 1.86 0 0 0 1.755-1.755 30.615 30.615 0 0 0-.555-7.65 1.23 1.23 0 0 0-1.53-1.035zM64.74 53a26.04 26.04 0 0 1-.36 4.095c0 .36-.105.72-.18 1.08v.675a25.95 25.95 0 0 1-21.405 19.875l-.705.09h-.24a25.86 25.86 0 0 1-3.15.225 21.645 21.645 0 0 1-2.61-.195H36l-.96-.135h-.255a25.155 25.155 0 0 1-11.445-4.935 25.605 25.605 0 0 1-9.945-16.5c0-.29-.045-.585-.135-.885v-.21a24 24 0 0 1-.3-3.18v-.99c0-1.05.18-2.13.33-3.09v-.135a24.87 24.87 0 0 1 4.5-10.815A25.5 25.5 0 0 1 34.8 27.605c1.33-.21 2.674-.32 4.02-.33a25.77 25.77 0 0 1 3.855.315c.54 0 1.065.15 1.59.255h.105a25.17 25.17 0 0 1 10.83 5.28 25.5 25.5 0 0 1 9.135 15.72 1.2 1.2 0 0 1 0 .135A27.11 27.11 0 0 1 64.74 53zM33.93 32.63a19.5 19.5 0 0 0-3.525 6.165 47.52 47.52 0 0 0 7.095.705v-9.315a7.5 7.5 0 0 0-3.57 2.445zm-10.98 3.705a20.22 20.22 0 0 0 4.725 1.845 24 24 0 0 1 3.825-6.975 22.65 22.65 0 0 0-8.55 5.13zm-7.2 15.42h9.525c.056-3.697.56-7.374 1.5-10.95l-.69-.225c-.765-.255-1.5-.48-2.235-.78-.735-.3-1.5-.66-2.22-1.035l-.63-.36a23.13 23.13 0 0 0-5.25 13.35zm11.04 13.8l-.3-1.5c-.27-1.305-.54-2.655-.735-3.99-.195-1.335-.255-2.76-.42-4.065 0-.47-.04-.94-.12-1.41H15.75a23.235 23.235 0 0 0 5.34 13.5 21 21 0 0 1 5.7-2.535zm4.83 9.63a15.345 15.345 0 0 1-2.07-3c-.51-.975-.975-1.98-1.5-3l-.495-1.05a19.02 19.02 0 0 0-4.635 1.86 25.5 25.5 0 0 0 8.7 5.19zm5.88-8.4c-2.37.053-4.733.294-7.065.72a22.5 22.5 0 0 0 2.025 4.14 11.76 11.76 0 0 0 3.255 3.585 6 6 0 0 0 1.8.87l-.015-9.315zm0-12.285h-9.51c.07 3.504.574 6.985 1.5 10.365a48.765 48.765 0 0 1 8.01-.795V54.5zm0-12.315a49.965 49.965 0 0 1-7.965-.825 42 42 0 0 0-1.5 10.365H37.5v-9.54zm8.73-11.01a24 24 0 0 1 3.825 6.975 20.01 20.01 0 0 0 4.74-1.845 22.95 22.95 0 0 0-8.565-5.1v-.03zm-6 8.295a46.17 46.17 0 0 0 7.065-.705 20.415 20.415 0 0 0-3-5.55A8.79 8.79 0 0 0 40.95 30.5c-.225-.105-.465-.18-.705-.255l-.015 9.225zm0 12.255h9.495a42.315 42.315 0 0 0-1.5-10.365 49.86 49.86 0 0 1-7.935.825l-.06 9.54zm0 12.285h1.005c.975 0 1.98.12 3 .225a55.91 55.91 0 0 1 3 .405l.93.135a42.195 42.195 0 0 0 1.5-10.35h-9.42l-.015 9.585zm3.36 9.825a18.87 18.87 0 0 0 3.705-6.36 47.865 47.865 0 0 0-7.02-.72V76.1a7.35 7.35 0 0 0 3.33-2.235l-.015-.03zm11.13-3.87a19.005 19.005 0 0 0-4.68-1.86 23.82 23.82 0 0 1-3.825 6.945 22.905 22.905 0 0 0 8.52-5.055l-.015-.03zM61.995 54.5H52.5A45.69 45.69 0 0 1 51 65.48l.69.225c.735.24 1.5.495 2.235.795.735.3 1.5.675 2.19 1.05l.69.345a23.115 23.115 0 0 0 5.19-13.395zm0-2.76A23.25 23.25 0 0 0 56.7 38.345a21.945 21.945 0 0 1-5.805 2.4 45.81 45.81 0 0 1 1.605 11.01l9.495-.015zm18.225 6.51a30.42 30.42 0 0 0-4.68-6.105 1.86 1.86 0 0 0-2.475-.15 30.75 30.75 0 0 0-5.37 5.505A1.236 1.236 0 1 0 69.66 59a27.6 27.6 0 0 1 3.15-3.495C71.785 73.869 56.304 88.065 37.92 87.5a34.245 34.245 0 0 1-17.085-4.995c-.51-.315-.825-.495-1.005-.615a1.5 1.5 0 0 0-2.055.375 1.5 1.5 0 0 0 .39 2.085c.3.21.6.42 1.215.78a37.365 37.365 0 0 0 18.465 5.37c19.834.601 36.59-14.596 37.92-34.395a26.775 26.775 0 0 1 2.325 3.375 1.23 1.23 0 0 0 2.13-1.23z"/>
  </g>
</svg>
