<svg xmlns="http://www.w3.org/2000/svg" width="96" height="112" viewBox="0 0 96 112">
  <g fill="none" fill-rule="evenodd">
    <rect width="144" height="144" transform="translate(-26 -15)"/>
    <path fill="#1EA2B1" d="M28.72 28.2c18.54 0 26.505 3.15 26.865 3.255a3.017 3.017 0 0 1 1.929 2.599l.006.191v74.265c0 1.62-1.27 2.947-2.866 3.04l-.179.005H2.965a3.048 3.048 0 0 1-3.04-2.866l-.005-.179V34.245c0-1.215.765-2.34 1.935-2.79.3-.15 8.325-3.255 26.865-3.255zm25.755 61.365H2.965v18.945h51.51V89.565zM28.72 96.3a3.045 3.045 0 1 1 0 6.09 3.045 3.045 0 0 1 0-6.09zm0-65.1c-17.993 0-25.598 2.983-25.753 3.044l-.002.001v52.26h51.51v-52.26S46.9 31.2 28.72 31.2zm-6.795 14.355h13.62c.371 0 .705.303.758.665l.007.1v5.28a.793.793 0 0 1-.665.758l-.1.007h-13.62a.793.793 0 0 1-.758-.665l-.007-.1v-5.28c0-.371.29-.705.662-.758l.103-.007h13.62zm54.51-44.55a1.594 1.594 0 0 1 1.575.105c4.455 3.135 8.355 7.14 11.19 11.445 2.835 4.305 4.56 8.91 4.575 13.26 0 4.305-1.68 8.265-4.41 11.145a14.532 14.532 0 0 1-10.695 4.665c-4.2 0-8.01-1.785-10.74-4.665-2.745-2.835-4.41-6.795-4.41-11.145 0-1.77.555-3.39 1.32-4.815.75-1.41 1.815-2.685 2.88-3.945 2.175-2.475 4.605-4.86 6.18-7.8 1.065-1.92 1.725-4.155 1.725-6.885 0-.6.3-1.11.81-1.365zm2.01 4.155c-.555 3.495-2.13 6.33-3.9 8.655-2.22 2.94-4.815 5.265-6.33 7.5-1.005 1.515-1.62 2.88-1.62 4.455 0 3.54 1.365 6.735 3.54 9.06a11.817 11.817 0 0 0 5.775 3.39c-1.11-.615-2.835-2.025-2.835-4.26 0-3.045 3.195-5.925 2.535-9.015 0 0 2.025.825 2.325 3.705.315 3.09 5.07-2.775 3.705-9.72 0 0 4.965 4.605 4.815 10.635-.105 4.155-2.085 6.99-4.155 8.46 1.875-.6 3.555-1.71 4.92-3.135 2.19-2.28 3.555-5.52 3.585-9.12 0-3.54-1.53-7.65-4.11-11.595-2.115-3.285-5.01-6.375-8.25-9.015z"/>
  </g>
</svg>
