<svg xmlns="http://www.w3.org/2000/svg" width="26" height="24" viewBox="0 0 26 24">
  <path fill="#FFF" fill-rule="evenodd" d="M19.004 0a1 1 0 0 1 .998 1.001L19.999 3h4.003C25.106 3 26 3.896 26 5v17c0 1.104-.894 2-1.998 2H1.998A1.999 1.999 0 0 1 0 22V5c0-1.104.894-2 1.998-2h4.001L6.002.999a1 1 0 1 1 2 .002L7.999 3h10l.003-2.001A1 1 0 0 1 19.004 0zM24 5H2v17h22V5zM4 10h18V7H4v3zm0 5h3v-3H4v3zm0 5h3v-3H4v3zm15-5h3v-3h-3v3zm0 5h3v-3h-3v3zM9 15h3v-3H9v3zm0 5h3v-3H9v3zm5-5h3v-3h-3v3zm0 5h3v-3h-3v3z"/>
</svg>
