<svg xmlns="http://www.w3.org/2000/svg" width="24" height="24" viewBox="0 0 24 24">
  <path fill="#EA1B0A" fill-rule="evenodd" d="M23.247 3.9c-.301-1.6-1.506-2.8-3.113-3.1C17.423.3 14.71 0 12 0 9.289 0 6.577.3 3.866.8 2.26 1.1 1.054 2.3.753 3.9-.25 9.3-.25 14.8.753 20.1c.301 1.6 1.506 2.8 3.113 3.1 2.711.5 5.423.8 8.134.8 2.711 0 5.423-.3 8.134-.8 1.607-.3 2.812-1.5 3.113-3.1a43.934 43.934 0 0 0 0-16.2zM13 18c0 .5-.5 1-1 1s-1-.5-1-1v-7c0-.5.5-1 1-1s1 .5 1 1v7zM12 8c-.8 0-1.5-.7-1.5-1.5S11.2 5 12 5s1.5.7 1.5 1.5S12.8 8 12 8z"/>
</svg>
