<svg xmlns="http://www.w3.org/2000/svg" width="24" height="24" viewBox="0 0 24 24">
  <g fill="none" fill-rule="evenodd">
    <rect width="24" height="24"/>
    <path fill="#FFF" d="M19.895 15.319l-1.875-1.8a1.313 1.313 0 0 0-1.875 0l-1.35 1.35c-.3-.15-.975-.45-1.725-.825a15.843 15.843 0 0 1-2.325-1.575c-.75-.825-1.35-1.65-1.8-2.625-.225-.45-.45-.825-.525-1.125l-.075-.225 1.35-1.35a1.313 1.313 0 0 0 0-1.875L7.82 3.394a1.313 1.313 0 0 0-1.875 0l-2.7 2.7c-.15.225-.3.45-.225.75.075.6.15 1.275.375 1.875.9 2.55 2.325 4.95 4.125 6.9 1.35 1.275 2.925 2.325 4.575 3.15.75.375 1.575.75 2.4 1.05.6.225 1.2.375 1.875.375.3 0 .525-.075.75-.225l2.775-2.7c.525-.6.525-1.425 0-1.95z"/>
  </g>
</svg>
