<svg width="96" height="96" xmlns="http://www.w3.org/2000/svg">
    <path d="M68.5 69.5H28c-.6 0-1-.4-1-1V28c0-.6.4-1 1-1h40.5c.6 0 1 .4 1 1v40.5c0 .6-.4 1-1 1zm-39.5-2h38.5V29H29v38.5zm43.5 6H24c-.6 0-1-.4-1-1V24c0-.6.4-1 1-1h48.5c.6 0 1 .4 1 1v48.5c0 .6-.4 1-1 1zm-47.5-2h46.5V25H25v46.5zm11-17.2c-.6 0-1-.4-1-1V42c0-.6.4-1 1-1s1 .4 1 1v11.4c0 .5-.4.9-1 .9zm6 4c-.6 0-1-.4-1-1V38c0-.6.4-1 1-1s1 .4 1 1v19.3c0 .6-.4 1-1 1zm6 3.2c-.6 0-1-.4-1-1V35c0-.6.4-1 1-1s1 .4 1 1v25.5c0 .6-.5 1-1 1zm7-3.2c-.6 0-1-.4-1-1V38c0-.6.4-1 1-1s1 .4 1 1v19.3c0 .6-.5 1-1 1zm6-4c-.6 0-1-.4-1-1V42c0-.6.4-1 1-1s1 .4 1 1v11.4c0 .5-.5.9-1 .9z" fill-rule="evenodd" class="icon"/>
</svg>
