<svg width="96" height="96" xmlns="http://www.w3.org/2000/svg">
    <path d="M53 65V51H15v6h31a1 1 0 010 2h-7v7a1 1 0 01-1 1H2a1 1 0 01-1-1V25a1 1 0 011-1h36a1 1 0 011 1v8h14v-6h-7a1 1 0 01-1-1v-8a1 1 0 011-1h7v-3a1 1 0 011-1h7a1 1 0 011 1v3h3v-6h-3a1 1 0 01-1-1V2a1 1 0 011-1h28a1 1 0 011 1v8a1 1 0 01-1 1h-3v6h3a1 1 0 011 1v56a1 1 0 01-1 1h-3v6h3a1 1 0 011 1v8a1 1 0 01-1 1H62a1 1 0 01-1-1v-8a1 1 0 011-1h3v-6h-3v3a1 1 0 01-1 1h-7a1 1 0 01-1-1v-3h-7a1 1 0 01-1-1v-8a1 1 0 011-1h7zm0 2h-6v6h6v-6zm2-1v11h5V38a1 1 0 012 0v35h27V19H62v7a1 1 0 01-2 0V15h-5v51zm-2-41v-6h-6v6h6zM37 59H15v6h22v-6zm16-10v-6H15v6h38zm0-8v-6H14a1 1 0 01-1-1v-8H3v39h10V42a1 1 0 011-1h39zm-16-8v-7H15v7h22zm48 42H67v6h11a1 1 0 010 2H63v6h26v-6h-3a.997.997 0 01-1-1v-7zm0-58v-6h-7a1 1 0 010-2h11V3H63v6h7a1 1 0 010 2h-3v6h18z" fill-rule="evenodd" class="icon"/>
</svg>
