<svg width="96" height="96" xmlns="http://www.w3.org/2000/svg">
    <path d="M68 63.983a35.154 35.154 0 01-13.41-3.071A1 1 0 0154 60V21a1 1 0 01.59-.912 35.2 35.2 0 0128.82 0A1 1 0 0184 21v39a1 1 0 01-.59.912A35.154 35.154 0 0170 63.982V69c0 1.103-.897 2-2 2H52v-2h16v-5.017zM48 66H14v12h34V66zm0-2V28.76a64.93 64.93 0 00-34 0V64h34zM36 41a1 1 0 01-1 1h-8a1 1 0 01-1-1v-3a1 1 0 011-1h8a1 1 0 011 1v3zm-5 33a2 2 0 11.001-4.001A2 2 0 0131 74zm38-17a2 2 0 11.001-4.001A2 2 0 0169 57zM50 78c0 1.103-.897 2-2 2H14c-1.103 0-2-.897-2-2V28a1 1 0 01.728-.962 66.966 66.966 0 0136.544 0A1 1 0 0150 28v50zm6-18.654a33.18 33.18 0 0026 0V21.655a33.171 33.171 0 00-26 0v37.69z" fill-rule="evenodd" class="icon"/>
</svg>
