<svg width="96" height="96" xmlns="http://www.w3.org/2000/svg">
    <path d="M57.341 29.113L53.18 25.7a1.001 1.001 0 011.267-1.547l6.187 5.074a1 1 0 01.14 1.407L55.7 36.82a.998.998 0 01-1.407.139.999.999 0 01-.14-1.407l3.667-4.471c-2.868.213-5.67.846-8.342 1.887a1 1 0 01-.726-1.863 30.82 30.82 0 018.59-1.992zM80 82H70v-2h10V16H16v64h34v2H16c-1.103 0-2-.897-2-2V16c0-1.103.897-2 2-2h64c1.103 0 2 .897 2 2v64c0 1.103-.897 2-2 2zM35.234 44.063a1 1 0 01-.824-1.565 31.093 31.093 0 017.134-7.406 1 1 0 011.191 1.606 29.083 29.083 0 00-6.675 6.93 1 1 0 01-.826.435zM30 61a1 1 0 01-1-1c0-3.476.571-6.89 1.698-10.143a1 1 0 111.891.654A28.899 28.899 0 0031 60a1 1 0 01-1 1zm10 7v6a2 2 0 01-2 2H22a2 2 0 01-2-2v-6a25.997 25.997 0 0120 0zm28-28a25.997 25.997 0 010-20h6a2 2 0 012 2v16a2 2 0 01-2 2h-6z" fill-rule="evenodd" class="icon"/>
</svg>
