<svg width="96" height="96" xmlns="http://www.w3.org/2000/svg">
    <path d="M82 43a1.001 1.001 0 0 0 0-2H14a1.001 1.001 0 0 0 0 2h68zm-7.147 13.28L78.612 45H17.388l3.759 11.28A15.66 15.66 0 0 0 36.021 67h23.958a15.66 15.66 0 0 0 14.874-10.72zM82 39c1.654 0 3 1.346 3 3s-1.346 3-3 3h-1.279l-3.972 11.913a17.65 17.65 0 0 1-15.29 12.024l1.468 3.615a1 1 0 1 1-1.854.752L59.326 69H36.674l-1.747 4.304a1.001 1.001 0 0 1-1.854-.752l1.468-3.615a17.65 17.65 0 0 1-15.29-12.024L15.279 45H14c-1.654 0-3-1.346-3-3s1.346-3 3-3h68zm-61-5c0-1.654-1.346-3-3-3h-7v-2h4v-3h-1a1 1 0 1 1 0-2h4a1 1 0 1 1 0 2h-1v3h1c2.757 0 5 2.243 5 5h-2z" fill-rule="evenodd" fill="#fff"/>
</svg>
