<svg width="96" height="96" xmlns="http://www.w3.org/2000/svg">
    <path d="M21 33c-.512 0-.935.387-.993.883L20 34v29h2V53h52v10h2V52c0-.512-.387-.935-.883-.993L75 51H22V34a1 1 0 00-1-1zm8 8h-2a3 3 0 00-3 3v5h12v-1a7 7 0 00-7-7zm38 0H45a5.001 5.001 0 00-4.995 4.783L40 46v3h32v-3a5.001 5.001 0 00-4.783-4.995L67 41zm-29 7v-2a7.001 7.001 0 016.76-6.996L45 39h22a7.001 7.001 0 016.996 6.76L74 46v3h1a3 3 0 012.995 2.824L78 52v13h-6V55H24v10h-6V34a3 3 0 015.995-.176L24 34v6c.836-.628 1.874-1 3-1h2a9 9 0 019 9z" fill-rule="evenodd" fill="#fff"/>
</svg>
