<svg width="96" height="96" xmlns="http://www.w3.org/2000/svg">
    <path d="M70.764 11c1.076 0 2.05.562 2.588 1.482l.095.176 10.724 21.447a1.99 1.99 0 01-.088 1.947c-.332.54-.914.89-1.543.942l-.158.006H78v45a3.004 3.004 0 01-2.824 2.995L75 85H21a3.004 3.004 0 01-2.995-2.824L18 82V37h-4.382a2.014 2.014 0 01-1.702-.949 1.989 1.989 0 01-.158-1.788l.071-.158 10.724-21.447a2.981 2.981 0 012.483-1.651l.2-.007h45.528zM76 61H20v21a1 1 0 00.883.993L21 83h54a1 1 0 00.993-.883L76 82V61zm-52 6c1.803-1.803 8.197-1.803 10 0v10a2 2 0 01-2 2h-6a2 2 0 01-2-2zm21.364 1.636c.361.36.389.927.083 1.32l-.083.094-1.95 1.95H51a1 1 0 01.117 1.993L51 74h-7.586l1.95 1.95a.999.999 0 01-1.311 1.504l-.103-.09-3.657-3.657a.999.999 0 01-.083-1.32l.083-.094 3.657-3.657a.999.999 0 011.414 0zM29 74.5a1.5 1.5 0 10.001 3.001A1.5 1.5 0 0029 74.5zM66 64a1 1 0 011 1c0 4.963-4.037 9-9 9a1 1 0 110-2c3.859 0 7-3.141 7-7a1 1 0 011-1zm-35 4h-4v2h4v-2zm45-31H20v22h40V48.295A6.961 6.961 0 0058 48a1 1 0 110-2c.55 0 1.087.054 1.61.151l.39.081V41h12v18h4V37zm-6 6h-8v3.95c2.959 1.476 5 4.525 5 8.05a1 1 0 11-2 0 6.987 6.987 0 00-2.786-5.58L62 49.264V59h8V43zm-36.152-1.139L34 42v10a2.001 2.001 0 01-1.85 1.995L32 54h-6a2 2 0 01-1.994-1.85L24 52V42c1.756-1.756 7.864-1.802 9.848-.139zM29 49.5a1.5 1.5 0 10.001 3.001A1.5 1.5 0 0029 49.5zM51 46a1 1 0 01.117 1.993L51 48h-8a1 1 0 01-.117-1.993L43 46h8zm-20-3h-4v2h4v-2zm39.764-30H25.236a.993.993 0 00-.83.444l-.064.109L13.618 35h68.764L71.658 13.553a.995.995 0 00-.894-.553z" fill-rule="evenodd" fill="#fff"/>
</svg>
