<svg width="96" height="96" viewBox="0 0 96 96" xmlns="http://www.w3.org/2000/svg">
    <path d="M48 21c14.888 0 27 12.113 27 27 0 14.888-12.112 27-27 27S21 62.888 21 48c0-14.887 12.112-27 27-27zm24.975 28h-4.026C68.437 59.78 59.779 68.438 49 68.95v4.025C61.99 72.46 72.46 61.99 72.975 49zm-45.924 0h-4.026C23.54 61.99 34.01 72.46 47 72.975V68.95C36.221 68.438 27.563 59.78 27.051 49zM48 29c-10.477 0-19 8.524-19 19 0 10.477 8.523 19 19 19s19-8.523 19-19c0-10.476-8.523-19-19-19zM36 41a1 1 0 0 1 1 1v8a1 1 0 1 1-2 0v-8a1 1 0 0 1 1-1zm6-6a1 1 0 0 1 1 1v14a1 1 0 1 1-2 0V36a1 1 0 0 1 1-1zm6-2a1 1 0 0 1 1 1v16a1 1 0 1 1-2 0V34a1 1 0 0 1 1-1zm6 2a1 1 0 0 1 1 1v14a1 1 0 1 1-2 0V36a1 1 0 0 1 1-1zm6 6a1 1 0 0 1 1 1v8a1 1 0 1 1-2 0v-8a1 1 0 0 1 1-1zM47 23.026C34.01 23.54 23.54 34.01 23.025 47h4.026c.512-10.78 9.17-19.437 19.949-19.95zm2 0v4.025c10.779.512 19.437 9.17 19.949 19.949h4.026C72.46 34.01 61.99 23.54 49 23.026z" fill-rule="evenodd" fill="#ffffff"/>
</svg>
