<svg width="96" height="96" viewBox="0 0 96 96" xmlns="http://www.w3.org/2000/svg">
    <path d="M32 31a1 1 0 011 1v32a1 1 0 01-1 1H12a1 1 0 01-1-1V32a1 1 0 011-1h20zm-1 2H13v30h18V33zm19 24a1 1 0 010 2h-4a1 1 0 010-2h4zm-2-4a1 1 0 110 2 1 1 0 010-2zm36-22a1 1 0 011 1v20a1 1 0 01-1 1H64a1 1 0 01-1-1V32a1 1 0 011-1h20zM73 43h-8v8h8v-8zm10 0h-8v8h8v-8zm-35 6a1 1 0 110 2 1 1 0 010-2zm-20-2a1 1 0 010 2h-2a1 1 0 010-2h2zm24-10a1 1 0 011 1v8a1 1 0 01-1 1h-8a1 1 0 01-1-1v-8a1 1 0 011-1h8zm4.586 2.172L58 40.586l1.414-1.414a1 1 0 111.414 1.414L59.414 42l1.414 1.414a1 1 0 11-1.414 1.414L58 43.414l-1.414 1.414a1 1 0 11-1.414-1.414L56.586 42l-1.414-1.414a1 1 0 111.414-1.414zm-20 0L38 40.586l1.414-1.414a1 1 0 111.414 1.414L39.414 42l1.414 1.414a1 1 0 11-1.414 1.414L38 43.414l-1.414 1.414a1 1 0 11-1.414-1.414L36.586 42l-1.414-1.414a1 1 0 111.414-1.414zM73 33h-8v8h8v-8zm10 0h-8v8h8v-8zm-35 0a1 1 0 110 2 1 1 0 010-2zm0-4a1 1 0 110 2 1 1 0 010-2zm2-4a1 1 0 010 2h-4a1 1 0 010-2h4z" fill-rule="evenodd" fill="#ffffff"/>
</svg>
