<svg width="96" height="96" xmlns="http://www.w3.org/2000/svg">
    <path d="M39 40v6h2v2h2v4h-2v2h-2v29a3.004 3.004 0 0 1-2.824 2.995L36 86H17v-2h4V67h10v17h5a1 1 0 0 0 .993-.884L37 83V40h2zm35.512 25a2 2 0 0 1 1.862 1.27l.054.156 1.62 5.404 1.207-.697a1.01 1.01 0 0 1 .63-.125l.13.025a1 1 0 0 1 .339 1.769l-.099.064-1.618.934.058.208a7.97 7.97 0 0 1 .246 2.028l-.01.341-.377 6.68a1.001 1.001 0 0 1-.887.937l-.112.006H77v1a1 1 0 0 1-1 1h-2a1 1 0 0 1-1-1v-1h-8v1a1 1 0 0 1-1 1h-2a1 1 0 0 1-1-1v-1h-.554a1 1 0 0 1-.987-.832l-.012-.112-.378-6.679c-.04-.797.04-1.596.236-2.369l.057-.208-1.617-.934a1 1 0 1 1 1-1.732l1.205.697 1.623-5.405a1.998 1.998 0 0 1 1.751-1.42L63.49 65h11.023zM29 69h-6v15h6V69zm47.505 7a1 1 0 0 0-1.366-.366l-1.732 1a1 1 0 1 0 1 1.732l1.732-1A.999.999 0 0 0 76.505 76zm-13.645-.366a1 1 0 1 0-1 1.732l1.732 1A.998.998 0 0 0 64.959 78a1 1 0 0 0-.367-1.366zM73.768 67h-9.535a1 1 0 0 0-.958.713L61.689 73h14.623l-1.586-5.287a1 1 0 0 0-.958-.713zM31 44v14H21V44h10zm-2 2h-6v10h6V46zm21.364-.364a.999.999 0 0 1 0 1.414L48.414 49H55a1 1 0 1 1 0 2h-6.586l1.95 1.95a.999.999 0 1 1-1.414 1.414l-3.634-3.634a.997.997 0 0 1-.312-.825.997.997 0 0 1 .318-.64l3.628-3.629a.999.999 0 0 1 1.414 0zM17 12.586l25.707 25.707a1 1 0 0 1-.587 1.7L42 40H17v-2h22.586L17 15.414v-2.828z" fill-rule="evenodd" fill="#fff"/>
</svg>
