<svg width="96" height="96" xmlns="http://www.w3.org/2000/svg">
    <path d="M72 23a1 1 0 0 1 1 1v48a1 1 0 0 1-1 1H24a1 1 0 0 1-1-1V24a1 1 0 0 1 1-1h48zm-1 2H25v46h46V25zm-3 2a1 1 0 0 1 1 1v40a1 1 0 0 1-1 1H28a1 1 0 0 1-1-1V28a1 1 0 0 1 1-1h40zm-1 2H29v38h38V29zm-19 5a1 1 0 0 1 1 1v27a1 1 0 0 1-2 0V35a1 1 0 0 1 1-1zm-6 4a1 1 0 0 1 1 1v19a1 1 0 0 1-2 0V39a1 1 0 0 1 1-1zm12 0a1 1 0 0 1 1 1v19a1 1 0 0 1-2 0V39a1 1 0 0 1 1-1zm-18 4a1 1 0 0 1 1 1v11a1 1 0 0 1-2 0V43a1 1 0 0 1 1-1zm24 0a1 1 0 0 1 1 1v11a1 1 0 0 1-2 0V43a1 1 0 0 1 1-1z" fill-rule="evenodd" fill="#fff"/>
</svg>
