<svg width="96" height="96" xmlns="http://www.w3.org/2000/svg">
    <path d="M11 32a1 1 0 0 1 1-1h20a1 1 0 0 1 1 1v32a1 1 0 0 1-1 1H12a1 1 0 0 1-1-1V32zm52 0a1 1 0 0 1 1-1h20a1 1 0 0 1 1 1v20a1 1 0 0 1-1 1H64a1 1 0 0 1-1-1V32zm-20 6a1 1 0 0 1 1-1h8a1 1 0 0 1 1 1v8a1 1 0 0 1-1 1h-8a1 1 0 0 1-1-1v-8zM32 19a1 1 0 0 1 1 1v6a1 1 0 0 1-2 0v-6a1 1 0 0 1 1-1zm4 3a1 1 0 1 1 0 2 1 1 0 0 1 0-2zm4 0a1 1 0 1 1 0 2 1 1 0 0 1 0-2zm4-3a1 1 0 0 1 1 1v6a1 1 0 0 1-2 0v-6a1 1 0 0 1 1-1zm8 0a1 1 0 0 1 1 1v6a1 1 0 0 1-2 0v-6a1 1 0 0 1 1-1zm4 3a1 1 0 1 1 0 2 1 1 0 0 1 0-2zm4 0a1 1 0 1 1 0 2 1 1 0 0 1 0-2zm4-3a1 1 0 0 1 1 1v6a1 1 0 0 1-2 0v-6a1 1 0 0 1 1-1zM13 33v30h18V33H13zm52 0v18h18V33H65zM26 47h2a1 1 0 0 1 0 2h-2a1 1 0 0 1 0-2z" fill-rule="evenodd" fill="#fff"/>
</svg>
