<svg width="96" height="96" viewBox="0 0 96 96" xmlns="http://www.w3.org/2000/svg">
    <path d="M34 84a1 1 0 011 1v6a1 1 0 01-2 0v-6a1 1 0 011-1zm28 0a1 1 0 011 1v6a1 1 0 01-2 0v-6a1 1 0 011-1zm-24 3a1 1 0 110 2 1 1 0 010-2zm4 0a1 1 0 110 2 1 1 0 010-2zm4 0a1 1 0 110 2 1 1 0 010-2zm4 0a1 1 0 110 2 1 1 0 010-2zm4 0a1 1 0 110 2 1 1 0 010-2zm4 0a1 1 0 110 2 1 1 0 010-2zM18 9.59l25.707 25.707A1 1 0 0143 37.004h-3v4h2v2h2v4h-2v2h-2v29a3.004 3.004 0 01-2.824 2.995l-.176.005H18v-2h4v-17h10v17h5c.552 0 1-.449 1-1v-41H18v-2h22.586L18 12.418V9.59zm60 0v2.828L55.414 35.004H78v2H58v41c0 .551.448 1 1 1h5v-17h10v17h4v2H59c-1.654 0-3-1.346-3-3v-41h-3a1 1 0 01-.707-1.707L78 9.59zM30 64.004h-6v15h6v-15zm42 0h-6v15h6v-15zm-40-23v14H22v-14h10zm42 0v14H64v-14h10zm-44 2h-6v10h6v-10zm42 0h-6v10h6v-10z" fill-rule="evenodd" fill="#ffffff"/>
</svg>
