<svg width="96" height="96" viewBox="0 0 96 96" xmlns="http://www.w3.org/2000/svg">
    <path d="M68 7a2 2 0 012 2v78a2 2 0 01-2 2H28a2 2 0 01-2-2V9a2 2 0 012-2zm0 12H28v68h28V72h8v15h4V19zm-6 55h-4v13h4V74zm-22-2v11h-8V72h8zm12 0v11h-8V72h8zm-14 2h-4v7h4v-7zm12 0h-4v7h4v-7zM40 56v11h-8V56h8zm12 0v11h-8V56h8zm12 0v11h-8V56h8zm-26 2h-4v7h4v-7zm12 0h-4v7h4v-7zm12 0h-4v7h4v-7zm2-18v11h-8V40h8zm-24 0v11h-8V40h8zm12 0v11h-8V40h8zm10 2h-4v7h4v-7zm-24 0h-4v7h4v-7zm12 0h-4v7h4v-7zm14-18v11h-8V24h8zm-24 0v11h-8V24h8zm12 0v11h-8V24h8zm10 2h-4v7h4v-7zm-24 0h-4v7h4v-7zm12 0h-4v7h4v-7z" fill-rule="evenodd" fill="#ffffff"/>
</svg>
