<svg width="96" height="96" xmlns="http://www.w3.org/2000/svg">
    <path d="M68 7c1.054 0 1.918.816 1.995 1.85L70 9v52h10v2H70v24a2.001 2.001 0 01-1.85 1.995L68 89H28a2.001 2.001 0 01-1.995-1.85L26 87V63H16v-2h10V9c0-1.054.816-1.918 1.85-1.995L28 7h40zm0 12H28v68h28V72h8v15h4V19zm-6 55h-4v13h4V74zm-22-2v11h-8V72h8zm12 0v11h-8V72h8zm-14 2h-4v7h4v-7zm12 0h-4v7h4v-7zM40 56v11h-8V56h8zm12 0v11h-8V56h8zm12 0v11h-8V56h8zm0-16v11h-8V40h8zm-24 0v11h-8V40h8zm12 0v11h-8V40h8zm10 2h-4v7h4v-7zm-24 0h-4v7h4v-7zm12 0h-4v7h4v-7zm14-18v11h-8V24h8zm-24 0v11h-8V24h8zm12 0v11h-8V24h8zm10 2h-4v7h4v-7zm-24 0h-4v7h4v-7zm12 0h-4v7h4v-7z" fill-rule="evenodd" fill="#fff"/>
</svg>
