<svg width="96" height="96" xmlns="http://www.w3.org/2000/svg">
    <path d="M81 62H47v12h34V62zm0-2V24.76a64.93 64.93 0 0 0-34 0V60h34zM69 37a1 1 0 0 1-1 1h-8a1 1 0 0 1-1-1v-3a1 1 0 0 1 1-1h8a1 1 0 0 1 1 1v3zm-5 33a2 2 0 1 1 .001-4.001A2 2 0 0 1 64 70zm-17 6c-1.103 0-2-.897-2-2V24a1 1 0 0 1 .728-.962 66.966 66.966 0 0 1 36.544 0A1 1 0 0 1 83 24v50c0 1.103-.897 2-2 2H47zM12 22.497h10a1 1 0 0 1 0 2H12a1 1 0 0 1 0-2zm18 0h8a1 1 0 0 1 0 2h-8a1 1 0 0 1 0-2zm-8 10h16a1 1 0 0 1 0 2H22a1 1 0 0 1 0-2zM12 42h10a1 1 0 0 1 0 2H12a1 1 0 0 1 0-2zm19 0h7a1 1 0 0 1 0 2h-7a1 1 0 0 1 0-2zM12 52h16a1 1 0 0 1 0 2H12a1 1 0 0 1 0-2zm9 10h17a1 1 0 0 1 0 2H21a1 1 0 0 1 0-2zm-9 10h23a1 1 0 0 1 0 2H12a1 1 0 0 1 0-2z" fill-rule="evenodd" fill="#fff"/>
</svg>
