<svg width="96" height="96" xmlns="http://www.w3.org/2000/svg">
    <path d="M55 67V53H17v6h31a1 1 0 0 1 0 2h-7v7a1 1 0 0 1-1 1H4a1 1 0 0 1-1-1V27a1 1 0 0 1 1-1h36a1 1 0 0 1 1 1v8h14v-6h-7a1 1 0 0 1-1-1v-8a1 1 0 0 1 1-1h7v-3a1 1 0 0 1 1-1h7a1 1 0 0 1 1 1v3h3v-6h-3a1 1 0 0 1-1-1V4a1 1 0 0 1 1-1h28a1 1 0 0 1 1 1v8a1 1 0 0 1-1 1h-3v6h3a1 1 0 0 1 1 1v56a1 1 0 0 1-1 1h-3v6h3a1 1 0 0 1 1 1v8a1 1 0 0 1-1 1H64a1 1 0 0 1-1-1v-8a1 1 0 0 1 1-1h3v-6h-3v3a1 1 0 0 1-1 1h-7a1 1 0 0 1-1-1v-3h-7a1 1 0 0 1-1-1v-8a1 1 0 0 1 1-1h7zm0 2h-6v6h6v-6zm2-1v11h5V40a1 1 0 0 1 2 0v35h27V21H64v7a1 1 0 0 1-2 0V17h-5v51zm-2-41v-6h-6v6h6zM39 61H17v6h22v-6zm16-10v-6H17v6h38zm0-8v-6H16a1 1 0 0 1-1-1v-8H5v39h10V44a1 1 0 0 1 1-1h39zm-16-8v-7H17v7h22zm48 42H69v6h11a1 1 0 0 1 0 2H65v6h26v-6h-3a.997.997 0 0 1-1-1v-7zm0-58v-6h-7a1 1 0 0 1 0-2h11V5H65v6h7a1 1 0 0 1 0 2h-3v6h18z" fill-rule="evenodd" fill="#fff"/>
</svg>
