<svg width="96" height="96" viewBox="0 0 96 96" xmlns="http://www.w3.org/2000/svg">
    <path d="M82.272 23.038A1 1 0 0 1 83 24v50c0 1.103-.897 2-2 2H47c-1.103 0-2-.897-2-2V24a1 1 0 0 1 .728-.962 66.966 66.966 0 0 1 36.544 0zM35 72a1 1 0 0 1 0 2H12a1 1 0 0 1 0-2h23zm46-10H47v12h34V62zm-17 4a2 2 0 1 1-.001 4.001A2 2 0 0 1 64 66zm-26-4a1 1 0 0 1 0 2H21a1 1 0 0 1 0-2h17zm9-37.24V60h34V24.76a64.93 64.93 0 0 0-34 0zM28 52a1 1 0 0 1 0 2H12a1 1 0 0 1 0-2h16zm-6-10a1 1 0 0 1 0 2H12a1 1 0 0 1 0-2h10zm16 0a1 1 0 0 1 0 2h-7a1 1 0 0 1 0-2h7zm30-9a1 1 0 0 1 1 1v3a1 1 0 0 1-1 1h-8a1 1 0 0 1-1-1v-3a1 1 0 0 1 1-1h8zm-30-.503a1 1 0 0 1 0 2H22a1 1 0 0 1 0-2h16zm-16-10a1 1 0 0 1 0 2H12a1 1 0 0 1 0-2h10zm16 0a1 1 0 0 1 0 2h-8a1 1 0 0 1 0-2h8z" fill-rule="evenodd" fill="#ffffff"/>
</svg>
