<svg width="96" height="96" viewBox="0 0 96 96" xmlns="http://www.w3.org/2000/svg">
    <path d="M45.816 69.336c-1.307 0-2.37-.401-3.192-1.204-.821-.803-1.232-1.801-1.232-2.996 0-1.232.41-2.259 1.232-3.08.821-.821 1.885-1.232 3.192-1.232 1.307 0 2.38.41 3.22 1.232.84.821 1.26 1.848 1.26 3.08 0 1.195-.42 2.193-1.26 2.996-.84.803-1.913 1.204-3.22 1.204zm.28-38.752c1.867 0 3.519.261 4.956.784 1.437.523 2.65 1.232 3.64 2.128a8.814 8.814 0 0 1 2.24 3.136c.504 1.195.756 2.483.756 3.864 0 1.307-.205 2.455-.616 3.444-.41.99-.933 1.895-1.568 2.716a26.859 26.859 0 0 1-2.016 2.324 44.072 44.072 0 0 0-2.016 2.212 11.4 11.4 0 0 0-1.568 2.38c-.41.84-.616 1.783-.616 2.828h-6.944c0-1.419.205-2.67.616-3.752.41-1.083.933-2.063 1.568-2.94a19.847 19.847 0 0 1 2.044-2.408 69.984 69.984 0 0 0 2.044-2.128 11.53 11.53 0 0 0 1.568-2.128c.41-.728.616-1.521.616-2.38 0-1.083-.355-1.997-1.064-2.744-.71-.747-1.773-1.12-3.192-1.12-1.53 0-2.641.364-3.332 1.092-.69.728-1.036 1.559-1.036 2.492l-6.552-.672c0-1.195.196-2.343.588-3.444a7.592 7.592 0 0 1 1.876-2.912c.859-.84 1.941-1.512 3.248-2.016 1.307-.504 2.893-.756 4.76-.756z" fill-rule="evenodd" fill="#ffffff"/>
</svg>
