<svg width="96" height="96" xmlns="http://www.w3.org/2000/svg">
    <path d="M67 53.016h-5v-12h2c1.1 0 2-.9 2-2v-3c0-1.1-.9-2-2-2h-2.1c-.6-2.7-3.2-4.5-5.9-3.9-1.2.2-2.3.9-3 1.9-1.7-2.2-4.8-2.7-7-1-.4.3-.7.6-1 1-1.7-2.2-4.8-2.7-7-1-.4.3-.7.6-1 1-1.7-2.2-4.8-2.7-7-1-1.3.9-2 2.4-2 4v21c0 2.4 1.7 4.4 4 4.9v2.1h-1c-.6 0-1 .4-1 1s.4 1 1 1h4c.6 0 1-.4 1-1s-.4-1-1-1h-1v-2.1c1.2-.2 2.3-.9 3-1.9 1.7 2.2 4.8 2.7 7 1 .4-.3.7-.6 1-1 1.7 2.2 4.8 2.7 7 1 .4-.3.7-.6 1-1 .7 1 1.8 1.7 3 1.9v2.1h-1c-.6 0-1 .4-1 1s.4 1 1 1h4c.6 0 1-.4 1-1s-.4-1-1-1h-1v-2.1c2.3-.5 4-2.5 4-4.9v-1h5c.6 0 1-.4 1-1s-.4-1-1-1zm-3-17v3h-2v-3h2zm-31 23c-1.7 0-3-1.3-3-3v-21c0-1.7 1.3-3 3-3s3 1.3 3 3v21c0 1.7-1.3 3-3 3zm8 0c-1.7 0-3-1.3-3-3v-21c0-1.7 1.3-3 3-3s3 1.3 3 3v21c0 1.7-1.3 3-3 3zm8 0c-1.7 0-3-1.3-3-3v-21c0-1.7 1.3-3 3-3s3 1.3 3 3v21c0 1.7-1.3 3-3 3zm11-3c0 1.7-1.3 3-3 3s-3-1.3-3-3v-21c0-1.7 1.3-3 3-3s3 1.3 3 3v21z" fill-rule="evenodd" fill="#fff"/>
</svg>
