<svg width="96" height="96" viewBox="0 0 96 96" xmlns="http://www.w3.org/2000/svg">
    <path d="M49.272 27.038A1 1 0 0150 28v50c0 1.103-.897 2-2 2H14c-1.103 0-2-.897-2-2V28a1 1 0 01.728-.962 66.966 66.966 0 0136.544 0zM48 66H14v12h34V66zm-17 4a2 2 0 11-.001 4.001A2 2 0 0131 70zm52.41-49.912A1 1 0 0184 21v39a1 1 0 01-.59.912A35.154 35.154 0 0170 63.982V69c0 1.103-.897 2-2 2H52v-2h16v-5.017a35.154 35.154 0 01-13.41-3.071A1 1 0 0154 60V21a1 1 0 01.59-.912 35.2 35.2 0 0128.82 0zM14 28.76V64h34V28.76a64.93 64.93 0 00-34 0zm42-7.106v37.69a33.18 33.18 0 0026 0v-37.69a33.171 33.171 0 00-26 0zM69 53a2 2 0 11-.001 4.001A2 2 0 0169 53zM35 37a1 1 0 011 1v3a1 1 0 01-1 1h-8a1 1 0 01-1-1v-3a1 1 0 011-1h8z" fill-rule="evenodd" fill="#ffffff"/>
</svg>
