<svg width="96" height="96" xmlns="http://www.w3.org/2000/svg">
    <path d="M41 20c9.689 0 17.614 7.695 17.986 17.294a14.94 14.94 0 0111.807 12.21A2.998 2.998 0 0167.832 53H44.168a2.993 2.993 0 01-2.29-1.062 2.994 2.994 0 01-.671-2.435 14.936 14.936 0 0111.772-12.201C52.618 31.009 47.383 26 41 26c-6.617 0-12 5.383-12 12v38h-2V38c0-7.72 6.28-14 14-14 7.396 0 13.47 5.764 13.967 13.035a14.903 14.903 0 012.003-.004C56.47 28.659 49.497 22 41 22c-8.822 0-16 7.178-16 16v38h-2V38c0-9.925 8.075-18 18-18zm-.417 53a1.5 1.5 0 11-.001 3.001A1.5 1.5 0 0140.583 73zm7.708 0a1.5 1.5 0 110 3 1.5 1.5 0 010-3zM56 73a1.5 1.5 0 11-.001 3.001A1.5 1.5 0 0156 73zm7.709 0a1.5 1.5 0 11-.001 3.001A1.5 1.5 0 0163.709 73zm7.708 0a1.5 1.5 0 110 3 1.5 1.5 0 010-3zm-29.028-5.667a1.5 1.5 0 11-.001 3.001 1.5 1.5 0 010-3.001zm6.805 0a1.5 1.5 0 110 3.001 1.5 1.5 0 010-3.001zm6.806 0a1.5 1.5 0 11-.001 3.001A1.5 1.5 0 0156 67.333zm6.806 0a1.5 1.5 0 110 3 1.5 1.5 0 010-3zm6.903 0a1.5 1.5 0 11-.001 3.001 1.5 1.5 0 01.001-3.001zm-25.515-5.666a1.5 1.5 0 110 3 1.5 1.5 0 010-3zm5.904 0a1.5 1.5 0 110 3 1.5 1.5 0 010-3zm5.902 0a1.5 1.5 0 110 3 1.5 1.5 0 010-3zm5.903 0a1.5 1.5 0 110 3 1.5 1.5 0 010-3zm6.097 0a1.5 1.5 0 110 3 1.5 1.5 0 010-3zM46 56a1.5 1.5 0 11-.001 3.001A1.5 1.5 0 0146 56zm5 0a1.5 1.5 0 11-.001 3.001A1.5 1.5 0 0151 56zm5 0a1.5 1.5 0 11-.001 3.001A1.5 1.5 0 0156 56zm5 0a1.5 1.5 0 11-.001 3.001A1.5 1.5 0 0161 56zm5 0a1.5 1.5 0 11-.001 3.001A1.5 1.5 0 0166 56zm2.652-7H43.347c-.064.275-.12.553-.167.834A.999.999 0 0044.168 51h23.664a.997.997 0 00.988-1.165 13.23 13.23 0 00-.168-.835zM56 39a12.955 12.955 0 00-12.01 8h24.02c-1.969-4.769-6.64-8-12.01-8z" fill-rule="evenodd" fill="#fff"/>
</svg>
