<svg width="96" height="96" xmlns="http://www.w3.org/2000/svg">
    <path d="M67 28.414V34a1 1 0 1 1-2 0v-5.586l-1.95 1.95a.999.999 0 1 1-1.414-1.414l3.657-3.657a.999.999 0 0 1 1.414 0l3.657 3.657a.999.999 0 1 1-1.414 1.414L67 28.414zM80 40h-8v-2h8V8H16v30h42v2H16c-1.103 0-2-.897-2-2V8c0-1.103.897-2 2-2h64c1.103 0 2 .897 2 2v30c0 1.103-.897 2-2 2zm0 50H16c-1.103 0-2-.897-2-2V58c0-1.103.897-2 2-2h8v2h-8v30h64V58H38v-2h42c1.103 0 2 .897 2 2v30c0 1.103-.897 2-2 2zM40 76v6a2 2 0 0 1-2 2H22a2 2 0 0 1-2-2v-6a25.997 25.997 0 0 1 20 0zm36-56a25.997 25.997 0 0 1-20 0v-6a2 2 0 0 1 2-2h16a2 2 0 0 1 2 2v6zM58 49a1 1 0 1 1 0-2c3.859 0 7-3.14 7-7a1 1 0 1 1 2 0c0 4.962-4.037 9-9 9zm-28 8a1 1 0 0 1-1-1c0-4.963 4.037-9 9-9a1 1 0 1 1 0 2c-3.859 0-7 3.141-7 7a1 1 0 0 1-1 1zm23-8h-8a1 1 0 1 1 0-2h8a1 1 0 1 1 0 2zM30 70a1 1 0 0 1-1-1v-7a1 1 0 1 1 2 0v7a1 1 0 0 1-1 1z" fill-rule="evenodd" fill="#fff"/>
</svg>
