<svg width="96" height="96" xmlns="http://www.w3.org/2000/svg">
    <g fill-rule="evenodd" fill="#fff">
        <path d="M88 84h3a1 1 0 0 0 1-1V24H64v59a1 1 0 0 0 1 1h15V66h8v18zm-8-26V48h8v10h-8zm2-2h4v-6h-4v6zm0 28h4V68h-4v16zM68 58V48h8v10h-8zm2-2h4v-6h-4v6zm10-16V30h8v10h-8zm2-2h4v-6h-4v6zm-14 2V30h8v10h-8zm2-2h4v-6h-4v6zm-2 38V66h8v10h-8zm2-2h4v-6h-4v6zm21 12H65c-1.654 0-3-1.346-3-3V22h32v61c0 1.654-1.346 3-3 3zm-4.401-74.177L93.999 22H62l7.403-10.177A2 2 0 0 1 71.019 11h13.963a2 2 0 0 1 1.617.823zM28 84h3a1 1 0 0 0 1-1V24H4v59a1 1 0 0 0 1 1h15V66h8v18zm-8-26V48h8v10h-8zm2-2h4v-6h-4v6zm0 28h4V68h-4v16zM8 58V48h8v10H8zm2-2h4v-6h-4v6zm10-16V30h8v10h-8zm2-2h4v-6h-4v6zM8 40V30h8v10H8zm2-2h4v-6h-4v6zM8 76V66h8v10H8zm2-2h4v-6h-4v6zm21 12H5c-1.654 0-3-1.346-3-3V22h32v61c0 1.654-1.346 3-3 3zm-4.401-74.177L33.999 22H2l7.403-10.177A2 2 0 0 1 11.019 11h13.963a2 2 0 0 1 1.617.823z"/>
        <path d="M58 84h3a1 1 0 0 0 1-1V24H34v59a1 1 0 0 0 1 1h15V66h8v18zm-8-26V48h8v10h-8zm2-2h4v-6h-4v6zm0 28h4V68h-4v16zM38 58V48h8v10h-8zm2-2h4v-6h-4v6zm10-16V30h8v10h-8zm2-2h4v-6h-4v6zm-14 2V30h8v10h-8zm2-2h4v-6h-4v6zm-2 38V66h8v10h-8zm2-2h4v-6h-4v6zm21 12H35c-1.654 0-3-1.346-3-3V22h32v61c0 1.654-1.346 3-3 3zm-4.401-74.177L63.999 22H32l7.403-10.177A2 2 0 0 1 41.019 11h13.963a2 2 0 0 1 1.617.823z"/>
    </g>
</svg>
