<svg width="72" height="96" xmlns="http://www.w3.org/2000/svg">
    <path d="M31 16a1 1 0 01.993.883L32 17v9.764l2.684 5.368 2.791 5.581a4.98 4.98 0 01.517 1.942l.008.291V67h4V20h26v5.67l4 6.028V38h-2v24h2v18H42V69h-4v9a2 2 0 01-1.85 1.995L36 80H14a2 2 0 01-1.995-1.85L12 78V53H2a2 2 0 01-1.995-1.85L0 51V17a1 1 0 011.993-.117L2 17v34h10v-4H8a2 2 0 01-1.995-1.85L6 45V17a1 1 0 011.993-.117L8 17v28h4v-5.054c0-.681.136-1.347.403-1.97l.123-.263L18 26.762V17a1 1 0 01.883-.993L19 16a1 1 0 01.993.883L20 17v9h10v-9a1 1 0 01.77-.974l.113-.02L31 16zm35 6H44v45h10a1 1 0 01.993.883L55 68a1 1 0 01-.883.993L54 69H44v9h26V64H50a2 2 0 01-2-2V38a2 2 0 012-2h20v-3.698l-4-6.03V22zm-35.618 6H19.618l-5.303 10.607c-.174.347-.277.72-.306 1.106l-.009.233L13.999 45H23a1 1 0 01.117 1.993L23 47h-9.001v4H23a1 1 0 01.117 1.993L23 53h-9.001L14 78h22v-9h-4v6H18V61h14v6h4V39.946c0-.391-.074-.77-.219-1.128l-.095-.212L30.382 28zM30 63H20v10h10v-4h-5a1 1 0 01-.993-.883L24 68a1 1 0 01.883-.993L25 67h5v-4zm38-25H50v24h18V38zm-7 3.995v1.915c0 1.267.382 2.13 1.43 3.591.08.113.365.506.381.528C64.36 50.176 65 51.645 65 54a6 6 0 01-6 6 6 6 0 01-6-6c0-4.7 2.286-8.025 6.428-10.91L61 41.994zm-1.762 3.74C56.45 48.02 55 50.573 55 54c0 1.05.404 2.004 1.064 2.717A3.867 3.867 0 0156 56c0-2 1-5 3.6-6.054C59.6 54 62 53 62 56c0 .26-.033.512-.095.752A3.994 3.994 0 0063 54c0-1.85-.485-2.963-1.811-4.801l-.385-.533c-.791-1.104-1.297-1.99-1.566-2.93z" fill-rule="evenodd"/>
</svg>
