<svg width="72" height="96" xmlns="http://www.w3.org/2000/svg">
    <path d="M61.906 56.75A3.986 3.986 0 0 0 63 54c0-1.85-.485-2.963-1.811-4.801l-.385-.533c-.791-1.104-1.297-1.99-1.566-2.93C56.45 48.018 55 50.572 55 54c0 1.049.403 2.003 1.063 2.716A3.9 3.9 0 0 1 56 56c0-2 1-5 3.6-6.054C59.6 54 62 53 62 56c0 .259-.033.51-.094.75zM32 26.764l2.684 5.368 2.791 5.581c.347.696.525 1.454.525 2.233V67h4V20h26v5.67l4 6.028V38h-2v24h2v18H42V69h-4v9a2 2 0 0 1-2 2H14a2 2 0 0 1-2-2V53H2a2 2 0 0 1-2-2V17a1 1 0 0 1 2 0v34h10v-4H8a2 2 0 0 1-2-2V17a1 1 0 0 1 2 0v28h4v-5.054c0-.779.178-1.537.526-2.233L18 26.763V17a1 1 0 0 1 2 0v9h10v-9a1 1 0 0 1 2 0v9.764zM36 69h-4v6H18V61h14v6h4V39.946c0-.47-.106-.922-.314-1.34L30.382 28H19.618l-5.303 10.607A2.98 2.98 0 0 0 14 39.946V45h9a1 1 0 0 1 0 2h-9v4h9a1 1 0 0 1 0 2h-9v25h22v-9zm8 0v9h26V64H50a2 2 0 0 1-2-2V38a2 2 0 0 1 2-2h20v-3.698l-4-6.03V22H44v45h10a1 1 0 0 1 0 2H44zm-14-2v-4H20v10h10v-4h-5a1 1 0 0 1 0-2h5zm38-29H50v24h18V38zm-3 16a6 6 0 0 1-6 6 6 6 0 0 1-6-6c0-4.7 2.286-8.025 6.428-10.91L61 41.994v1.915c0 1.267.382 2.13 1.43 3.591.08.113.365.506.381.528C64.36 50.176 65 51.645 65 54z" fill-rule="evenodd"/>
</svg>
