<svg width="74" height="96" viewBox="0 0 74 96" xmlns="http://www.w3.org/2000/svg">
    <path d="M71 39c1.654 0 3 1.346 3 3s-1.346 3-3 3h-1.279l-3.972 11.913a17.65 17.65 0 0 1-15.29 12.024l1.468 3.615a1 1 0 1 1-1.854.752L48.326 69H25.674l-1.747 4.304a1.001 1.001 0 0 1-1.854-.752l1.468-3.615a17.65 17.65 0 0 1-15.29-12.024L4.279 45H3c-1.654 0-3-1.346-3-3s1.346-3 3-3zm-3.388 6H6.388l3.759 11.28A15.66 15.66 0 0 0 25.021 67h23.958a15.66 15.66 0 0 0 14.874-10.72L67.612 45zM71 41H3a1.001 1.001 0 0 0 0 2h68a1.001 1.001 0 0 0 0-2zM7 24a1 1 0 1 1 0 2H6v3h1c2.757 0 5 2.243 5 5h-2c0-1.654-1.346-3-3-3H0v-2h4v-3H3a1 1 0 1 1 0-2z" fill-rule="evenodd"/>
</svg>
