<svg width="74" height="96" xmlns="http://www.w3.org/2000/svg">
    <path d="M55 64a1 1 0 0 1 1 1c0 4.963-4.037 9-9 9a1 1 0 1 1 0-2c3.859 0 7-3.141 7-7a1 1 0 0 1 1-1zM40 46a1 1 0 1 1 0 2h-8a1 1 0 1 1 0-2h8zm0 26a1 1 0 1 1 0 2h-7.586l1.95 1.95a.999.999 0 1 1-1.414 1.414l-3.657-3.657a.999.999 0 0 1 0-1.414l3.657-3.657a.999.999 0 1 1 1.414 1.414L32.414 72H40zm26-37h5.382L60.658 13.553a.995.995 0 0 0-.894-.553H14.236a.995.995 0 0 0-.894.553L2.618 35H66zm-2 48a1 1 0 0 0 1-1V61H9v21a1 1 0 0 0 1 1h54zM49 41h12v18h4V37H9v22h40V48.295A6.961 6.961 0 0 0 47 48a1 1 0 1 1 0-2c.688 0 1.355.085 2 .232V41zm2 8.264V59h8V43h-8v3.95c2.959 1.476 5 4.525 5 8.05a1 1 0 1 1-2 0 6.992 6.992 0 0 0-3-5.736zm22.171-15.159a1.99 1.99 0 0 1-.088 1.947 2.013 2.013 0 0 1-1.701.948H67v45c0 1.654-1.346 3-3 3H10c-1.654 0-3-1.346-3-3V37H2.618a2.014 2.014 0 0 1-1.702-.949 1.99 1.99 0 0 1-.087-1.946l10.724-21.447A2.983 2.983 0 0 1 14.236 11h45.528c1.143 0 2.172.635 2.683 1.658l10.724 21.447zM16 45h4v-2h-4v2zm2 7.5a1.5 1.5 0 1 0-.001-3.001A1.5 1.5 0 0 0 18 52.5zM13 42c1.803-1.803 8.197-1.803 10 0v10a2 2 0 0 1-2 2h-6a2 2 0 0 1-2-2V42zm3 28h4v-2h-4v2zm2 7.5a1.5 1.5 0 1 0-.001-3.001A1.5 1.5 0 0 0 18 77.5zM13 67c1.803-1.803 8.197-1.803 10 0v10a2 2 0 0 1-2 2h-6a2 2 0 0 1-2-2V67z" fill-rule="evenodd"/>
</svg>
