<svg width="54" height="96" xmlns="http://www.w3.org/2000/svg">
    <path d="M28 72.975C40.99 72.46 51.46 61.99 51.975 49h-4.026C47.437 59.78 38.779 68.438 28 68.95v4.025zM2.025 49C2.54 61.99 13.01 72.46 26 72.975V68.95C15.221 68.438 6.563 59.78 6.051 49H2.025zM26 23.026C13.01 23.54 2.54 34.01 2.025 47h4.026C6.563 36.22 15.221 27.563 26 27.05v-4.024zM27 67c10.477 0 19-8.523 19-19 0-10.476-8.523-19-19-19S8 37.524 8 48c0 10.477 8.523 19 19 19zm24.975-20C51.46 34.01 40.99 23.54 28 23.026v4.025c10.779.512 19.437 9.17 19.949 19.949h4.026zM27 21c14.888 0 27 12.113 27 27 0 14.888-12.112 27-27 27S0 62.888 0 48c0-14.887 12.112-27 27-27zM15 41a1 1 0 0 1 1 1v8a1 1 0 1 1-2 0v-8a1 1 0 0 1 1-1zm6-6a1 1 0 0 1 1 1v14a1 1 0 1 1-2 0V36a1 1 0 0 1 1-1zm6-2a1 1 0 0 1 1 1v16a1 1 0 1 1-2 0V34a1 1 0 0 1 1-1zm6 2a1 1 0 0 1 1 1v14a1 1 0 1 1-2 0V36a1 1 0 0 1 1-1zm6 6a1 1 0 0 1 1 1v8a1 1 0 1 1-2 0v-8a1 1 0 0 1 1-1z" fill-rule="evenodd"/>
</svg>
