<svg width="64" height="96" xmlns="http://www.w3.org/2000/svg">
    <path d="M42 39v43a3.004 3.004 0 0 1-2.824 2.995L39 85H20v-2h4V66h10v17h5a1 1 0 0 0 .993-.884L40 82V39h2zM32 68h-6v15h6V68zm2-25v14H24V43h10zm-2 2h-6v10h6V45zM20 11.586l6 6V12h6v11.586l13.707 13.707a1 1 0 0 1-.587 1.7L45 39H20v-2h22.586L20 14.414v-2.828zm20.364 2.05a.999.999 0 0 1 0 1.414L38.414 17H45a1 1 0 1 1 0 2h-6.586l1.95 1.95a.999.999 0 1 1-1.414 1.414l-3.634-3.634a.997.997 0 0 1-.312-.825.997.997 0 0 1 .318-.64l3.628-3.629a.999.999 0 0 1 1.414 0z" fill-rule="evenodd"/>
</svg>
