<svg width="64" height="96" xmlns="http://www.w3.org/2000/svg">
    <path d="M52 47V19H12v68h28V72h8v15h4V47zm2 0v40a2 2 0 0 1-2 2H12a2 2 0 0 1-2-2V47H0v-2h10V9a2 2 0 0 1 2-2h40a2 2 0 0 1 2 2v36h10v2H54zM42 87h4V74h-4v13zm-26-4V72h8v11h-8zm2-2h4v-7h-4v7zm10 2V72h8v11h-8zm2-2h4v-7h-4v7zM16 67V56h8v11h-8zm2-2h4v-7h-4v7zm10 2V56h8v11h-8zm2-2h4v-7h-4v7zm10 2V56h8v11h-8zm2-2h4v-7h-4v7zm-2-30V24h8v11h-8zm2-2h4v-7h-4v7zm-26 2V24h8v11h-8zm2-2h4v-7h-4v7zm10 2V24h8v11h-8zm2-2h4v-7h-4v7zm10 18V40h8v11h-8zm-24 0V40h8v11h-8zm12 0V40h8v11h-8z" fill-rule="evenodd"/>
</svg>
