<svg width="90" height="96" viewBox="0 0 90 96" xmlns="http://www.w3.org/2000/svg">
    <path d="M89 3a1 1 0 011 1v8a1 1 0 01-1 1h-3v6h3a1 1 0 01.993.883L90 20v56a1 1 0 01-1 1h-3v6h3a1 1 0 01.993.883L90 84v8a1 1 0 01-1 1H61a1 1 0 01-1-1v-8a1 1 0 011-1h3v-6h-3v3a1 1 0 01-.883.993L60 81h-7a1 1 0 01-1-1v-3h-7a1 1 0 01-.993-.883L44 76v-8a1 1 0 011-1h7V53H14v6h31a1 1 0 01.993.883L46 60a1 1 0 01-1 1h-7v7a1 1 0 01-.883.993L37 69H1a1 1 0 01-1-1V27a1 1 0 011-1h36a1 1 0 011 1v8h14v-6h-7a1 1 0 01-.993-.883L44 28v-8a1 1 0 011-1h7v-3a1 1 0 01.883-.993L53 15h7a1 1 0 011 1v3h3v-6h-3a1 1 0 01-1-1V4a1 1 0 011-1zm-5 74H66v6h11a1 1 0 01.993.883L78 84a1 1 0 01-1 1H62v6h26v-6h-3a1 1 0 01-1-1v-7zM59 17h-5v62h5V40a1 1 0 012 0v35h27V21H61v7a1 1 0 01-.883.993L60 29a1 1 0 01-1-1V17zm-7 52h-6v6h6v-6zm-16-8H14v6h22v-6zM12 28H2v39h10V44a1 1 0 01.883-.993L13 43h39v-6H13a1 1 0 01-.993-.883L12 36v-8zm40 17H14v6h38v-6zM36 28H14v7h22v-7zm16-7h-6v6h6v-6zM88 5H62v6h7a1 1 0 010 2h-3v6h18v-6h-7a1 1 0 010-2h11V5z" fill-rule="evenodd"/>
</svg>
