<svg width="72" height="96" xmlns="http://www.w3.org/2000/svg">
    <path d="M37.272 27.038A1 1 0 0 1 38 28v50c0 1.103-.897 2-2 2H2c-1.103 0-2-.897-2-2V28a1 1 0 0 1 .728-.962 66.966 66.966 0 0 1 36.544 0zM36 66H2v12h34V66zm-17 4a2 2 0 1 1-.001 4.001A2 2 0 0 1 19 70zm52.41-49.912A1 1 0 0 1 72 21v39a1 1 0 0 1-.59.912A35.154 35.154 0 0 1 58 63.982V69c0 1.103-.897 2-2 2H40v-2h16v-5.017a35.154 35.154 0 0 1-13.41-3.071A1 1 0 0 1 42 60V21a1 1 0 0 1 .59-.912 35.2 35.2 0 0 1 28.82 0zM2 28.76V64h34V28.76a64.93 64.93 0 0 0-34 0zm42-7.106v37.69a33.18 33.18 0 0 0 26 0v-37.69a33.171 33.171 0 0 0-26 0zM57 53a2 2 0 1 1-.001 4.001A2 2 0 0 1 57 53zM23 37a1 1 0 0 1 1 1v3a1 1 0 0 1-1 1h-8a1 1 0 0 1-1-1v-3a1 1 0 0 1 1-1h8z" fill-rule="evenodd"/>
</svg>
