<svg width="52" height="96" viewBox="0 0 52 96" xmlns="http://www.w3.org/2000/svg">
    <path d="M26 18c.407 0 .81.123 1.157.368l7.844 5.556V20h5v7.466l11.157 7.902A2.001 2.001 0 0150 39h-2v37c0 1.654-1.346 3-3 3H7c-1.655 0-3-1.346-3-3V39H2a2 2 0 01-1.156-3.632l24-17A2.001 2.001 0 0126 18zm20 21H6v37c0 .551.448 1 1 1h23V62h10v15h5c.552 0 1-.449 1-1V39zm-8 25h-6v13h6V64zm-13.999-2v10h-14V62h14zm-2 2h-4v6h4v-6zm-6 0h-4v6h4v-6zm8-22v10h-14V42h14zm18 0v10h-14V42h14zm-20 2h-4v6h4v-6zm-6 0h-4v6h4v-6zm24 0h-4v6h4v-6zm-6 0h-4v6h4v-6zm-8-24L2 37h48L26 20z" fill-rule="evenodd"/>
</svg>
