<svg width="68" height="96" xmlns="http://www.w3.org/2000/svg">
    <path d="M66 14c1.103 0 2 .897 2 2v64c0 1.103-.897 2-2 2H56v-2h10V16H2v64h34v2H2c-1.103 0-2-.897-2-2V16c0-1.103.897-2 2-2h64zM25.552 67.818L26 68v6a2.001 2.001 0 0 1-1.85 1.995L24 76H8a2.001 2.001 0 0 1-1.995-1.85L6 74v-6a25.997 25.997 0 0 1 19.552-.182zm-7.582-18.58a1 1 0 0 1 .62 1.273A28.899 28.899 0 0 0 17 60a1 1 0 1 1-2 0c0-3.476.571-6.89 1.698-10.143a1 1 0 0 1 1.272-.618zm10.972-13.94a1 1 0 0 1-.207 1.4 29.083 29.083 0 0 0-6.675 6.93 1 1 0 0 1-1.65-1.13 31.093 31.093 0 0 1 7.134-7.406.998.998 0 0 1 1.398.207zM60 20a2 2 0 0 1 2 2v16a2 2 0 0 1-2 2h-6a25.997 25.997 0 0 1 0-20h6zm-19.553 4.153l6.187 5.074a1 1 0 0 1 .14 1.407L41.7 36.82a.998.998 0 0 1-1.407.139.999.999 0 0 1-.14-1.407l3.665-4.471a28.846 28.846 0 0 0-8.34 1.887 1 1 0 0 1-.726-1.863 30.82 30.82 0 0 1 8.591-1.993L39.18 25.7a1.001 1.001 0 0 1 1.267-1.547z" fill-rule="evenodd"/>
</svg>
