<svg width="74" height="96" xmlns="http://www.w3.org/2000/svg">
    <path d="M59.764 11c1.143 0 2.172.635 2.683 1.658l10.724 21.448a2.011 2.011 0 0 1-.089 1.947 2.009 2.009 0 0 1-1.7.947H67v45c0 1.654-1.346 3-3 3H10c-1.654 0-3-1.346-3-3V37H2.618a2.012 2.012 0 0 1-1.702-.949 2.011 2.011 0 0 1-.087-1.946l10.724-21.447A2.983 2.983 0 0 1 14.236 11zM65 61H9v21a1 1 0 0 0 1 1h54a1 1 0 0 0 1-1V61zm-5.236-48H14.236a.995.995 0 0 0-.894.553L2.618 35H29a1 1 0 1 1 0 2H9v22h56V37H45a1 1 0 1 1 0-2h26.382L60.658 13.553a.995.995 0 0 0-.894-.553zM22.85 42.861L23 43v10a2.001 2.001 0 0 1-1.851 1.995L21 55h-6a2 2 0 0 1-1.994-1.85l-.005-.15V43c1.754-1.756 7.863-1.802 9.848-.139zM18 50.5a1.5 1.5 0 1 0 0 3.001 1.5 1.5 0 0 0 0-3.001zM36 44a1 1 0 0 1 1 1 5.006 5.006 0 0 1-4.784 4.995L32 50h-5a1 1 0 0 1-.116-1.993L27 48h5c1.654 0 3-1.346 3-3a1 1 0 0 1 1-1zm-16 0h-4v2h4v-2zm16-11a1 1 0 0 1 .993.883L37 34v6a1 1 0 0 1-1.993.117L35 40v-6a1 1 0 0 1 1-1zm24.848-14.139L61 19v10a2.001 2.001 0 0 1-1.851 1.995L59 31h-6a2 2 0 0 1-1.994-1.85l-.005-.15V19c1.754-1.756 7.863-1.802 9.848-.139zm-16.236 1.691l.094.084 3.657 3.657a1 1 0 0 1 .084 1.32l-.084.094-3.657 3.658a.996.996 0 0 1-.707.292 1 1 0 0 1-.79-1.613l.083-.094 1.95-1.95H40c-1.654 0-3 1.346-3 3a1 1 0 1 1-2 0 5.006 5.006 0 0 1 4.784-4.996L40 24h5.243l-1.95-1.95a.999.999 0 0 1 1.32-1.498zM56.001 26.5a1.5 1.5 0 1 0 0 3 1.5 1.5 0 0 0 0-3zm2-6.5h-4v2h4v-2z" fill-rule="evenodd"/>
</svg>
