<svg width="92" height="96" viewBox="0 0 92 96" xmlns="http://www.w3.org/2000/svg">
    <g fill-rule="evenodd">
        <path d="M82.982 11a2 2 0 0 1 1.617.823L91.999 22 92 22v61c0 1.654-1.346 3-3 3H63c-1.654 0-3-1.346-3-3V22l7.402-10.177c.341-.47.87-.765 1.443-.815L69.02 11zM90 24H62v59a1 1 0 0 0 1 1h15V66h8v18h3a1 1 0 0 0 1-1V24zm-6 44h-4v16h4V68zm-10-2v10h-8V66h8zm-2 2h-4v6h4v-6zm14-20v10h-8V48h8zm-12 0v10h-8V48h8zm10 2h-4v6h4v-6zm-12 0h-4v6h4v-6zm14-20v10h-8V30h8zm-12 0v10h-8V30h8zm10 2h-4v6h4v-6zm-12 0h-4v6h4v-6zM22.982 11a2 2 0 0 1 1.617.823L31.999 22 32 22v61c0 1.654-1.346 3-3 3H3c-1.654 0-3-1.346-3-3V22l7.402-10.177c.341-.47.87-.765 1.443-.815L9.02 11zM30 24H2v59a1 1 0 0 0 1 1h15V66h8v18h3a1 1 0 0 0 1-1V24zm-6 44h-4v16h4V68zm-10-2v10H6V66h8zm-2 2H8v6h4v-6zm14-20v10h-8V48h8zm-12 0v10H6V48h8zm10 2h-4v6h4v-6zm-12 0H8v6h4v-6zm14-20v10h-8V30h8zm-12 0v10H6V30h8zm10 2h-4v6h4v-6zm-12 0H8v6h4v-6z"/>
        <path d="M52.982 11a2 2 0 0 1 1.617.823L61.999 22 62 22v61c0 1.654-1.346 3-3 3H33c-1.654 0-3-1.346-3-3V22l7.402-10.177c.341-.47.87-.765 1.443-.815L39.02 11zM60 24H32v59a1 1 0 0 0 1 1h15V66h8v18h3a1 1 0 0 0 1-1V24zm-6 44h-4v16h4V68zm-10-2v10h-8V66h8zm-2 2h-4v6h4v-6zm14-20v10h-8V48h8zm-12 0v10h-8V48h8zm10 2h-4v6h4v-6zm-12 0h-4v6h4v-6zm14-20v10h-8V30h8zm-12 0v10h-8V30h8zm10 2h-4v6h4v-6zm-12 0h-4v6h4v-6z"/>
    </g>
</svg>
