<svg width="72" height="32" xmlns="http://www.w3.org/2000/svg">
    <path d="M66.4 8.312c-1.3 0-2.4.8-3 1.9-1.3-1.5-3.2-2.4-5.3-2.4H26.4c-2.1 0-4.1 1-5.4 2.7-1.7-5.2-7.3-8.1-12.5-6.5-.9-1.7-2.9-2.5-4.6-1.7-1.1.6-1.9 1.8-1.9 3.1v23.6c0 .6.4 1 1 1h4.8c.6 0 1-.4 1-1v-4h54.3v4c0 .6.4 1 1 1h4.8c.6 0 1-.4 1-1v-17.3c-.1-1.9-1.6-3.4-3.5-3.4zm-46.9 9.9H8.8v-3h10.7v3zm6.9-8.4h31.7c2.7 0 4.9 2.2 4.9 4.9v3.6H21.5v-3.6c0-2.8 2.2-4.9 4.9-4.9zm-10.6-3c2.2 1.4 3.6 3.8 3.8 6.4H8.8v-7.3c2.3-.8 4.9-.4 7 .9zm52 21.2H65v-4c0-.6-.4-1-1-1H7.8c-.6 0-1 .4-1 1v4H4v-22.6c0-.8.6-1.4 1.4-1.4.8 0 1.4.6 1.4 1.4v13.9c0 .6.4 1 1 1h56.3c.6 0 1-.4 1-1v-7.6c0-.8.6-1.4 1.4-1.4.8 0 1.4.6 1.4 1.4l-.1 16.3z" fill-rule="evenodd"/>
</svg>
