<svg width="96" height="96" viewBox="0 0 96 96" xmlns="http://www.w3.org/2000/svg">
    <g fill-rule="evenodd">
        <path d="M48 64c11.133 0 20 2.334 20 6s-8.867 6-20 6-20-2.334-20-6 8.867-6 20-6zm0 2c-5.027 0-9.73.523-13.18 1.432C31.706 68.25 30 69.312 30 70c0 .687 1.707 1.75 4.82 2.568C38.27 73.477 42.972 74 48 74c5.027 0 9.73-.523 13.18-1.432C64.294 71.75 66 70.688 66 70c0-.687-1.707-1.75-4.82-2.568C57.73 66.523 53.028 66 48 66zM48 20c11.133 0 20 2.334 20 6s-8.867 6-20 6-20-2.334-20-6 8.867-6 20-6zm0 2c-5.027 0-9.73.523-13.18 1.432C31.706 24.25 30 25.312 30 26c0 .687 1.707 1.75 4.82 2.568C38.27 29.477 42.972 30 48 30c5.027 0 9.73-.523 13.18-1.432C64.294 27.75 66 26.688 66 26c0-.687-1.707-1.75-4.82-2.568C57.73 22.523 53.028 22 48 22z"/>
        <path d="M29 25a1 1 0 0 1 1 1v44a1 1 0 0 1-2 0V26a1 1 0 0 1 1-1zm38 0a1 1 0 0 1 1 1v44a1 1 0 0 1-2 0V26a1 1 0 0 1 1-1z"/>
    </g>
</svg>
