<svg width="96" height="96" xmlns="http://www.w3.org/2000/svg">
    <path d="M42 43.004h2v4h-2v2h-2v29c0 1.654-1.346 3-3 3H18v-2h4v-17h10v17h5c.552 0 1-.449 1-1v-41H18v-2h22.586L18 12.418V9.59l25.707 25.707A1 1 0 0 1 43 37.004h-3v4h2v2zm-18 36h6v-15h-6v15zm0-26h6v-10h-6v10zm-2 2v-14h10v14H22zm36 23c0 .551.448 1 1 1h5v-17h10v17h4v2H59c-1.654 0-3-1.346-3-3v-41h-3a1 1 0 0 1-.707-1.707L78 9.59v2.828L55.414 35.004H78v2H58v41zm14 1v-15h-6v15h6zm0-26v-10h-6v10h6zm2 2H64v-14h10v14zM33 85a1 1 0 0 1 2 0v6a1 1 0 0 1-2 0v-6zm5 2a1 1 0 1 1 0 2 1 1 0 0 1 0-2zm4 0a1 1 0 1 1 0 2 1 1 0 0 1 0-2zm4 0a1 1 0 1 1 0 2 1 1 0 0 1 0-2zm4 0a1 1 0 1 1 0 2 1 1 0 0 1 0-2zm4 0a1 1 0 1 1 0 2 1 1 0 0 1 0-2zm4 0a1 1 0 1 1 0 2 1 1 0 0 1 0-2zm4-3a1 1 0 0 1 1 1v6a1 1 0 0 1-2 0v-6a1 1 0 0 1 1-1z" fill-rule="evenodd"/>
</svg>
