<svg width="96" height="96" xmlns="http://www.w3.org/2000/svg">
    <path d="M34 40v12h51a1 1 0 110 2h-2v32h-2V54H34v4h2v2h2v4h-2v2h-2v17a3.004 3.004 0 01-2.824 2.995L31 86H12v-2h4V67h10v17h5a1 1 0 00.993-.884L32 83V40h2zm35.512 25a2 2 0 011.862 1.27l.054.156 1.62 5.403 1.207-.696a1.01 1.01 0 01.63-.125l.13.025a1 1 0 01.339 1.769l-.099.064-1.618.933.058.209a7.97 7.97 0 01.246 2.028l-.01.341-.377 6.68a1.001 1.001 0 01-.887.937l-.112.006H72v1a1 1 0 01-1 1h-2a1 1 0 01-1-1v-1h-8v1a1 1 0 01-1 1h-2a1 1 0 01-1-1v-1h-.554a1 1 0 01-.987-.832l-.012-.112-.378-6.679c-.04-.797.04-1.596.236-2.369l.057-.209-1.617-.933a1 1 0 111-1.732l1.205.696 1.623-5.404a1.998 1.998 0 011.751-1.42L58.49 65h11.023zM24 69h-6v15h6V69zm46.243 6.582l-.104.052-1.732 1a1 1 0 00.879 1.792l.12-.06 1.733-1a1 1 0 00-.896-1.785zM56.493 76a.999.999 0 00.269 1.302l.098.064 1.732 1A.998.998 0 0059.959 78a1 1 0 00-.27-1.302l-.097-.064-1.732-1a1 1 0 00-1.366.366zm12.275-9h-9.535a1 1 0 00-.917.601l-.041.112L56.689 73h14.623l-1.586-5.287a1 1 0 00-.958-.713zm-23.404-9.364a.999.999 0 010 1.414L43.414 61H50a1 1 0 110 2h-6.586l1.95 1.95a.999.999 0 11-1.414 1.414l-3.634-3.634a.997.997 0 01-.312-.825.997.997 0 01.318-.64l3.628-3.629a.999.999 0 011.414 0zM26 44v14H16V44h10zm-2 2h-6v10h6V46zM12 12.586l25.707 25.707a1 1 0 01-.587 1.7L37 40H12v-2h22.586L12 15.414v-2.828z" fill-rule="evenodd"/>
</svg>
