<svg width="96" height="96" viewBox="0 0 96 96" xmlns="http://www.w3.org/2000/svg">
    <path d="M64 12a1 1 0 0 1 1 1v53h4v2h2v4h-2v2h-4v7c0 1.654-1.346 3-3 3H20c-1.654 0-3-1.346-3-3V13a1 1 0 0 1 1-1zm-1 16H19v53a1 1 0 0 0 1 1h31V66h8v16h3a1 1 0 0 0 1-1V28zM31 66v10h-8V66h8zm14 0v10h-8V66h8zm31.95-.364a.999.999 0 1 1 1.414 1.414L76.414 69H83a1 1 0 1 1 0 2h-6.586l1.95 1.95a.999.999 0 1 1-1.414 1.414l-3.656-3.656a1.001 1.001 0 0 1 0-1.416zM59 50v10h-8V50h8zm-28 0v10h-8V50h8zm14 0v10h-8V50h8zm12 2h-4v6h4v-6zm-28 0h-4v6h4v-6zm14 0h-4v6h4v-6zm16-18v10h-8V34h8zm-28 0v10h-8V34h8zm14 0v10h-8V34h8zm12 2h-4v6h4v-6zm-28 0h-4v6h4v-6zm14 0h-4v6h4v-6zm20-22H19v12h44V14z" fill-rule="evenodd"/>
</svg>
