<svg width="96" height="96" xmlns="http://www.w3.org/2000/svg">
    <path d="M56 87V72h8v15h4V19H28v68h28zM70 9v78a2 2 0 0 1-2 2H28a2 2 0 0 1-2-2V9a2 2 0 0 1 2-2h40a2 2 0 0 1 2 2zM58 87h4V74h-4v13zm-26-4V72h8v11h-8zm2-2h4v-7h-4v7zm10 2V72h8v11h-8zm2-2h4v-7h-4v7zM32 67V56h8v11h-8zm2-2h4v-7h-4v7zm10 2V56h8v11h-8zm2-2h4v-7h-4v7zm10 2V56h8v11h-8zm2-2h4v-7h-4v7zm-2-14V40h8v11h-8zm2-2h4v-7h-4v7zm-2-14V24h8v11h-8zm2-2h4v-7h-4v7zM32 51V40h8v11h-8zm2-2h4v-7h-4v7zm10 2V40h8v11h-8zm2-2h4v-7h-4v7zM32 35V24h8v11h-8zm2-2h4v-7h-4v7zm10 2V24h8v11h-8zm2-2h4v-7h-4v7z" fill-rule="evenodd"/>
</svg>
