<svg width="96" height="96" xmlns="http://www.w3.org/2000/svg">
    <path d="M68 63V19H28v68h28V72h8v15h4V63zm2 0v24a2 2 0 0 1-2 2H28a2 2 0 0 1-2-2V63H16v-2h10V9a2 2 0 0 1 2-2h40a2 2 0 0 1 2 2v52h10v2H70zM58 87h4V74h-4v13zm-26-4V72h8v11h-8zm2-2h4v-7h-4v7zm10 2V72h8v11h-8zm2-2h4v-7h-4v7zm10-30V40h8v11h-8zm2-2h4v-7h-4v7zm-2-14V24h8v11h-8zm2-2h4v-7h-4v7zM32 51V40h8v11h-8zm2-2h4v-7h-4v7zm10 2V40h8v11h-8zm2-2h4v-7h-4v7zM32 35V24h8v11h-8zm2-2h4v-7h-4v7zm10 2V24h8v11h-8zm2-2h4v-7h-4v7zM32 67V56h8v11h-8zm12 0V56h8v11h-8zm12 0V56h8v11h-8z" fill-rule="evenodd"/>
</svg>
