<svg width="96" height="96" xmlns="http://www.w3.org/2000/svg">
    <path d="M23 76V66h8v10h-8zm14 0V66h8v10h-8zm14-16V50h8v10h-8zm-28 0V50h8v10h-8zm14 0V50h8v10h-8zm14-16V34h8v10h-8zm-28 0V34h8v10h-8zm14 0V34h8v10h-8zm22 38h3a1 1 0 0 0 1-1V28H19v53a1 1 0 0 0 1 1h31V66h8v16zm-6 0h4V68h-4v14zM19 26h44V14H19v12zm50 25v2h2v4h-2v2h-4v22c0 1.654-1.346 3-3 3H20c-1.654 0-3-1.346-3-3V13a1 1 0 0 1 1-1h46a1 1 0 0 1 1 1v38h4zm7.414 3H83a1 1 0 1 1 0 2h-6.586l1.95 1.95a.999.999 0 1 1-1.414 1.414l-3.656-3.656a1.001 1.001 0 0 1 0-1.416l3.656-3.656a.999.999 0 1 1 1.414 1.414L76.414 54zM25 74h4v-6h-4v6zm14 0h4v-6h-4v6zm14-32h4v-6h-4v6zm-28 0h4v-6h-4v6zm14 0h4v-6h-4v6z" fill-rule="evenodd"/>
</svg>
