<svg width="96" height="96" xmlns="http://www.w3.org/2000/svg">
    <path d="M64 12a1 1 0 0 1 .993.883L65 13v38h4v2h2v4h-2v2h-4v22a3.004 3.004 0 0 1-2.824 2.995L62 84H20a3.004 3.004 0 0 1-2.995-2.824L17 81V13a1 1 0 0 1 .883-.993L18 12h46zm-1 16H19v53a1 1 0 0 0 .883.993L20 82h31V66h8v16h3a1 1 0 0 0 .993-.883L63 81V28zm-6 40h-4v14h4V68zm-26-2v10h-8V66h8zm14 0v10h-8V66h8zm-16 2h-4v6h4v-6zm14 0h-4v6h4v-6zm16-18v10h-8V50h8zm-28 0v10h-8V50h8zm14 0v10h-8V50h8zm33.364.636a1 1 0 0 1 .083 1.32l-.083.094-1.95 1.95H83a1 1 0 0 1 .117 1.993L83 56h-6.586l1.95 1.95a.999.999 0 0 1-1.311 1.504l-.103-.09-3.656-3.656a1.001 1.001 0 0 1-.086-1.318l.086-.098 3.656-3.656a.999.999 0 0 1 1.414 0zM59 34v10h-8V34h8zm-28 0v10h-8V34h8zm14 0v10h-8V34h8zm12 2h-4v6h4v-6zm-28 0h-4v6h4v-6zm14 0h-4v6h4v-6zm20-22H19v12h44V14z" fill-rule="evenodd"/>
</svg>
