<svg width="96" height="96" xmlns="http://www.w3.org/2000/svg">
    <path d="M43 63v-2h10v2h-2v2h-2v2h-2v2h-2v2h-2v2h-2v2h-2v2h-2v2H27v-2h2v-2h2v-2h2v-2h2v-2h2v-2h2v-2h2v-2h2zM23 41v18h50V41H23zm-2 0h-2.764a2.981 2.981 0 0 1-2.552-1.422 2.981 2.981 0 0 1-.132-2.919l7.5-15.001A2.986 2.986 0 0 1 25.736 20h44.527c1.144 0 2.172.636 2.684 1.658l7.5 15a2.98 2.98 0 0 1-.132 2.92A2.981 2.981 0 0 1 77.763 41H75v37c0 1.654-1.346 3-3 3H24c-1.654 0-3-1.346-3-3V41zm53-2h3.763c.344 0 .67-.182.851-.475.184-.296.2-.66.044-.973l-7.5-14.999a.994.994 0 0 0-.895-.553H25.736a.994.994 0 0 0-.895.553l-7.5 15a.993.993 0 0 0 .044.972c.181.293.507.475.851.475H74zM23 61v17a1 1 0 0 0 1 1h48a1 1 0 0 0 1-1V61H23zm12-9h4v-6h-4v6zm-6 0h4v-6h-4v6zm-2 2V44h14v10H27zm36 18h4v-6h-4v6zm-6 0h4v-6h-4v6zm-2 2V64h14v10H55zm8-22h4v-6h-4v6zm-6 0h4v-6h-4v6zm-2 2V44h14v10H55z" fill-rule="evenodd"/>
</svg>
