<svg width="96" height="96" xmlns="http://www.w3.org/2000/svg">
    <path d="M70.263 20c1.144 0 2.172.636 2.684 1.658l7.5 15a2.98 2.98 0 01-.132 2.92A2.981 2.981 0 0177.763 41H75v37c0 1.654-1.346 3-3 3H24c-1.654 0-3-1.346-3-3V41h-2.764a2.981 2.981 0 01-2.552-1.422 2.981 2.981 0 01-.132-2.919l7.5-15.001A2.986 2.986 0 0125.736 20h44.527zM43 61H23v17a1 1 0 001 1h3v-2h2v-2h2v-2h2v-2h2v-2h2v-2h2v-2h2v-2h2v-2zm30 0H53v2h-2v2h-2v2h-2v2h-2v2h-2v2h-2v2h-2v2h-2v2h35a1 1 0 001-1V61zm-4 3v10H55V64h14zm-2 2h-4v6h4v-6zm-6 0h-4v6h4v-6zm12-25H23v18h50V41zm-32 3v10H27V44h14zm28 0v10H55V44h14zm-30 2h-4v6h4v-6zm-6 0h-4v6h4v-6zm34 0h-4v6h4v-6zm-6 0h-4v6h4v-6zm9.263-24H25.736a.994.994 0 00-.895.553l-7.5 15a.993.993 0 00.044.972c.181.293.507.475.851.475h59.527c.344 0 .67-.182.851-.475.184-.296.2-.66.044-.973l-7.5-14.999a.994.994 0 00-.895-.553z" fill-rule="evenodd"/>
</svg>
