<svg width="96" height="96" xmlns="http://www.w3.org/2000/svg">
    <path d="M48 18a2 2 0 0 1 1.005.27l.152.098 7.844 5.556V20h5v7.466l11.157 7.902a2.001 2.001 0 1 1-.995 3.625L72 39h-2v37a3.004 3.004 0 0 1-2.825 2.995L67 79H29a3.004 3.004 0 0 1-2.995-2.824L26 76V39h-2a2 2 0 0 1-1.284-3.533l.128-.099 24-17A2.001 2.001 0 0 1 48.001 18zm20 21H28v37c0 .512.387.935.884.993L29 77h23V62h10v15h5c.513 0 .936-.387.994-.884L68 76V39zm-8 25h-6v13h6V64zm-13.999-2v10h-14V62h14zm-2 2h-4v6h4v-6zm-6 0h-4v6h4v-6zm8-22v10h-14V42h14zm18 0v10h-14V42h14zm-20 2h-4v6h4v-6zm-6 0h-4v6h4v-6zm24 0h-4v6h4v-6zm-6 0h-4v6h4v-6zm-8-24L24 37h48L48 20z" fill-rule="evenodd"/>
</svg>
