<svg width="96" height="96" viewBox="0 0 96 96" xmlns="http://www.w3.org/2000/svg">
    <path d="M49.272 27.038A1 1 0 0 1 50 28v50c0 1.103-.897 2-2 2H14c-1.103 0-2-.897-2-2V28a1 1 0 0 1 .728-.962 66.966 66.966 0 0 1 36.544 0zM48 66H14v12h34V66zm-17 4a2 2 0 1 1-.001 4.001A2 2 0 0 1 31 70zm52.41-49.912A1 1 0 0 1 84 21v39a1 1 0 0 1-.59.912A35.154 35.154 0 0 1 70 63.982V69c0 1.103-.897 2-2 2H52v-2h16v-5.017a35.154 35.154 0 0 1-13.41-3.071A1 1 0 0 1 54 60V21a1 1 0 0 1 .59-.912 35.2 35.2 0 0 1 28.82 0zM14 28.76V64h34V28.76a64.93 64.93 0 0 0-34 0zm42-7.106v37.69a33.18 33.18 0 0 0 26 0v-37.69a33.171 33.171 0 0 0-26 0zM69 53a2 2 0 1 1-.001 4.001A2 2 0 0 1 69 53zM35 37a1 1 0 0 1 1 1v3a1 1 0 0 1-1 1h-8a1 1 0 0 1-1-1v-3a1 1 0 0 1 1-1h8z" fill-rule="evenodd"/>
</svg>
