<svg width="96" height="96" xmlns="http://www.w3.org/2000/svg">
    <path d="M68 63.983a35.154 35.154 0 0 1-13.41-3.071A1 1 0 0 1 54 60V21a1 1 0 0 1 .59-.912 35.2 35.2 0 0 1 28.82 0A1 1 0 0 1 84 21v39a1 1 0 0 1-.59.912A35.154 35.154 0 0 1 70 63.982V69c0 1.103-.897 2-2 2H52v-2h16v-5.017zM48 66H14v12h34V66zm0-2V28.76a64.93 64.93 0 0 0-34 0V64h34zM36 41a1 1 0 0 1-1 1h-8a1 1 0 0 1-1-1v-3a1 1 0 0 1 1-1h8a1 1 0 0 1 1 1v3zm-5 33a2 2 0 1 1 .001-4.001A2 2 0 0 1 31 74zm38-17a2 2 0 1 1 .001-4.001A2 2 0 0 1 69 57zM50 78c0 1.103-.897 2-2 2H14c-1.103 0-2-.897-2-2V28a1 1 0 0 1 .728-.962 66.966 66.966 0 0 1 36.544 0A1 1 0 0 1 50 28v50zm6-18.654a33.18 33.18 0 0 0 26 0V21.655a33.171 33.171 0 0 0-26 0v37.69z" fill-rule="evenodd"/>
</svg>
