<svg width="96" height="96" xmlns="http://www.w3.org/2000/svg">
    <path d="M42.385 41.077c.372.156.615.52.615.923v42c0 1.103-.897 2-2 2H13c-1.103 0-2-.897-2-2V42c0-.403.243-.767.615-.923 9.778-4.074 20.992-4.074 30.77 0zM41 72H13v12h28V72zm9-38h2v47h19v-3h2v3c0 1.103-.897 2-2 2H45v-2h5V34zM27 76a2 2 0 11-.001 4.001A2 2 0 0127 76zm57.471-34.882A.998.998 0 0185 42v30a1 1 0 01-.529.883A26.487 26.487 0 0172 76.006a26.487 26.487 0 01-12.471-3.123A1 1 0 0159 72V42c0-.37.203-.71.529-.882a26.462 26.462 0 0124.942 0zM61 42.608v28.784a24.46 24.46 0 0022 0V42.609a24.454 24.454 0 00-22 0zM72 66a2 2 0 11-.001 4.001A2 2 0 0172 66zM13 42.673V70h28V42.673c-8.936-3.537-19.064-3.537-28 0zM30 49.5a1 1 0 011 1v2a1 1 0 01-1 1h-6a1 1 0 01-1-1v-2a1 1 0 011-1h6zM67 11a1 1 0 01.994 1.104l-2 19A1 1 0 0165 32H37a1 1 0 01-.995-.896l-2-19A1 1 0 0135 11h32zm-1.11 2H36.11l1.79 17h26.2l1.79-17z" fill-rule="evenodd"/>
</svg>
