<svg width="96" height="96" xmlns="http://www.w3.org/2000/svg">
    <path d="M69.645 22a2 2 0 011.791 1.109l.066.148 4.401 11a2.002 2.002 0 01-1.693 2.736l-.165.007H73v39a3.004 3.004 0 01-2.824 2.995L70 79H50c-.768 0-1.47-.29-2.001-.767l-.124.107a2.986 2.986 0 01-1.641.651L46 79H26a3.003 3.003 0 01-2.995-2.824L23 76V37h-1.046a2 2 0 01-1.916-2.573l.06-.17 4.4-11a2 2 0 011.693-1.25l.162-.007h43.292zM71 37H49v39a1 1 0 00.883.993L50 77h5V62h10v15h5c.512 0 .935-.387.993-.884L71 76V37zm-24 0H25v39a1 1 0 00.883.993L26 77h5V62h10v15h5c.512 0 .935-.387.993-.884L47 76V37zm16 27h-6v13h6V64zm-24 0h-6v13h6V64zm28-22v10H53V42h14zm-24 0v10H29V42h14zm22 2h-4v6h4v-6zm-6 0h-4v6h4v-6zm-24 0h-4v6h4v-6zm6 0h-4v6h4v-6zm5.999-20H26.353l-4.399 11H47l-.001-11zm22.646 0H49v11h25.046l-4.4-11z" fill-rule="evenodd"/>
</svg>
