<svg width="96" height="96" xmlns="http://www.w3.org/2000/svg">
    <path d="M50 81V34h2v47h19v-3h2v3c0 1.103-.897 2-2 2H45v-2h5zM30 53.5h-6a1 1 0 0 1-1-1v-2a1 1 0 0 1 1-1h6a1 1 0 0 1 1 1v2a1 1 0 0 1-1 1zM29 78a2 2 0 1 1-4.001-.001A2 2 0 0 1 29 78zm45-10a2 2 0 1 1-4.001-.001A2 2 0 0 1 74 68zm-13 3.392a24.46 24.46 0 0 0 22 0V42.609a24.454 24.454 0 0 0-22 0v28.783zm11 4.614a26.487 26.487 0 0 1-12.471-3.123A1 1 0 0 1 59 72V42c0-.37.203-.71.529-.882a26.462 26.462 0 0 1 24.942 0A.998.998 0 0 1 85 42v30a1 1 0 0 1-.529.883A26.487 26.487 0 0 1 72 76.006zM13 42.673V84h28V42.673c-8.936-3.537-19.064-3.537-28 0zM41 86H13c-1.103 0-2-.897-2-2V42c0-.403.243-.767.615-.923 9.778-4.074 20.992-4.074 30.77 0 .372.156.615.52.615.923v42c0 1.103-.897 2-2 2zM13 72v-2h28v2H13zm24.9-42h26.2l1.79-17H36.11l1.79 17zM65 32H37a1 1 0 0 1-.995-.896l-2-19A1 1 0 0 1 35 11h32a1 1 0 0 1 .994 1.104l-2 19A1 1 0 0 1 65 32z" fill-rule="evenodd"/>
</svg>
