<svg width="96" height="96" viewBox="0 0 96 96" xmlns="http://www.w3.org/2000/svg">
    <g fill-rule="evenodd">
        <path d="M84.982 11a2 2 0 011.617.823L93.999 22 94 22v61c0 1.654-1.346 3-3 3H65c-1.654 0-3-1.346-3-3V22l7.402-10.177c.341-.47.87-.765 1.443-.815L71.02 11zM92 24H64v59a1 1 0 001 1h15V66h8v18h3a1 1 0 001-1V24zm-6 44h-4v16h4V68zm-10-2v10h-8V66h8zm-2 2h-4v6h4v-6zm14-20v10h-8V48h8zm-12 0v10h-8V48h8zm10 2h-4v6h4v-6zm-12 0h-4v6h4v-6zm14-20v10h-8V30h8zm-12 0v10h-8V30h8zm10 2h-4v6h4v-6zm-12 0h-4v6h4v-6zM24.982 11a2 2 0 011.617.823L33.999 22 34 22v61c0 1.654-1.346 3-3 3H5c-1.654 0-3-1.346-3-3V22l7.402-10.177c.341-.47.87-.765 1.443-.815L11.02 11zM32 24H4v59a1 1 0 001 1h15V66h8v18h3a1 1 0 001-1V24zm-6 44h-4v16h4V68zm-10-2v10H8V66h8zm-2 2h-4v6h4v-6zm14-20v10h-8V48h8zm-12 0v10H8V48h8zm10 2h-4v6h4v-6zm-12 0h-4v6h4v-6zm14-20v10h-8V30h8zm-12 0v10H8V30h8zm10 2h-4v6h4v-6zm-12 0h-4v6h4v-6z"/>
        <path d="M54.982 11a2 2 0 011.617.823L63.999 22 64 22v61c0 1.654-1.346 3-3 3H35c-1.654 0-3-1.346-3-3V22l7.402-10.177c.341-.47.87-.765 1.443-.815L41.02 11zM62 24H34v59a1 1 0 001 1h15V66h8v18h3a1 1 0 001-1V24zm-6 44h-4v16h4V68zm-10-2v10h-8V66h8zm-2 2h-4v6h4v-6zm14-20v10h-8V48h8zm-12 0v10h-8V48h8zm10 2h-4v6h4v-6zm-12 0h-4v6h4v-6zm14-20v10h-8V30h8zm-12 0v10h-8V30h8zm10 2h-4v6h4v-6zm-12 0h-4v6h4v-6z"/>
    </g>
</svg>
