<svg width="96" height="96" xmlns="http://www.w3.org/2000/svg">
    <path d="M70.764 11c1.143 0 2.172.635 2.683 1.658l10.724 21.448a2.011 2.011 0 01-.089 1.947 2.009 2.009 0 01-1.7.947H78v45c0 1.654-1.346 3-3 3H21c-1.654 0-3-1.346-3-3V37h-4.382a2.012 2.012 0 01-1.702-.949 2.011 2.011 0 01-.087-1.946l10.724-21.447A2.983 2.983 0 0125.236 11zM76 61H20v21a1 1 0 001 1h54a1 1 0 001-1V61zm-5.236-48H25.236a.995.995 0 00-.894.553L13.618 35H40a1 1 0 110 2H20v22h56V37H56a1 1 0 110-2h26.382L71.658 13.553a.995.995 0 00-.894-.553zM33.85 42.861L34 43v10a2.001 2.001 0 01-1.851 1.995L32 55h-6a2 2 0 01-1.994-1.85l-.005-.15V43c1.754-1.756 7.863-1.802 9.848-.139zM29 50.5a1.5 1.5 0 100 3.001 1.5 1.5 0 000-3.001zM47 44a1 1 0 011 1 5.006 5.006 0 01-4.784 4.995L43 50h-5a1 1 0 01-.116-1.993L38 48h5c1.654 0 3-1.346 3-3a1 1 0 011-1zm-16 0h-4v2h4v-2zm16-11a1 1 0 01.993.883L48 34v6a1 1 0 01-1.993.117L46 40v-6a1 1 0 011-1zm24.848-14.139L72 19v10a2.001 2.001 0 01-1.851 1.995L70 31h-6a2 2 0 01-1.994-1.85l-.005-.15V19c1.754-1.756 7.863-1.802 9.848-.139zm-16.236 1.691l.094.084 3.657 3.657a1 1 0 01.084 1.32l-.084.094-3.657 3.658a.996.996 0 01-.707.292 1 1 0 01-.79-1.613l.083-.094 1.95-1.95H51c-1.654 0-3 1.346-3 3a1 1 0 11-2 0 5.006 5.006 0 014.784-4.996L51 24h5.243l-1.95-1.95a.999.999 0 011.32-1.498zM67.001 26.5a1.5 1.5 0 100 3 1.5 1.5 0 000-3zm2-6.5h-4v2h4v-2z" fill-rule="evenodd"/>
</svg>
