<svg width="60" height="96" xmlns="http://www.w3.org/2000/svg">
    <path d="M3 33c-.512 0-.935.387-.993.883L2 34v29h2V53h52v10h2V52c0-.512-.387-.935-.883-.993L57 51H4V34a1 1 0 0 0-1-1zm8 8H9a3 3 0 0 0-3 3v5h12v-1a7 7 0 0 0-7-7zm38 0H27a5.001 5.001 0 0 0-4.995 4.783L22 46v3h32v-3a5.001 5.001 0 0 0-4.783-4.995L49 41zm-29 7v-2a7.001 7.001 0 0 1 6.76-6.996L27 39h22a7.001 7.001 0 0 1 6.996 6.76L56 46v3h1a3 3 0 0 1 2.995 2.824L60 52v13h-6V55H6v10H0V34a3 3 0 0 1 5.995-.176L6 34v6c.836-.628 1.874-1 3-1h2a9 9 0 0 1 9 9z" fill-rule="evenodd" fill="#fff"/>
</svg>
