<svg width="74" height="96" xmlns="http://www.w3.org/2000/svg">
    <path d="M59.764 11c1.076 0 2.05.562 2.588 1.482l.095.176 10.724 21.447a1.99 1.99 0 0 1-.088 1.947c-.332.54-.914.89-1.543.942l-.158.006H67v45a3.004 3.004 0 0 1-2.824 2.995L64 85H10a3.004 3.004 0 0 1-2.995-2.824L7 82V37H2.618a2.014 2.014 0 0 1-1.702-.949 1.989 1.989 0 0 1-.158-1.788l.071-.158 10.724-21.447a2.981 2.981 0 0 1 2.483-1.651l.2-.007h45.528zM65 61H9v21a1 1 0 0 0 .883.993L10 83h54a1 1 0 0 0 .993-.883L65 82V61zm-52 6c1.803-1.803 8.197-1.803 10 0v10a2 2 0 0 1-2 2h-6a2 2 0 0 1-2-2zm21.364 1.636c.361.36.389.927.083 1.32l-.083.094-1.95 1.95H40a1 1 0 0 1 .117 1.993L40 74h-7.586l1.95 1.95a.999.999 0 0 1-1.311 1.504l-.103-.09-3.657-3.657a.999.999 0 0 1-.083-1.32l.083-.094 3.657-3.657a.999.999 0 0 1 1.414 0zM18 74.5a1.5 1.5 0 1 0 .001 3.001A1.5 1.5 0 0 0 18 74.5zM55 64a1 1 0 0 1 1 1c0 4.963-4.037 9-9 9a1 1 0 1 1 0-2c3.859 0 7-3.141 7-7a1 1 0 0 1 1-1zm-35 4h-4v2h4v-2zm45-31H9v22h40V48.295A6.961 6.961 0 0 0 47 48a1 1 0 1 1 0-2c.55 0 1.087.054 1.61.151l.39.081V41h12v18h4V37zm-6 6h-8v3.95c2.959 1.476 5 4.525 5 8.05a1 1 0 1 1-2 0 6.987 6.987 0 0 0-2.786-5.58L51 49.264V59h8V43zm-36.152-1.139L23 42v10a2.001 2.001 0 0 1-1.85 1.995L21 54h-6a2 2 0 0 1-1.994-1.85L13 52V42c1.756-1.756 7.864-1.802 9.848-.139zM18 49.5a1.5 1.5 0 1 0 .001 3.001A1.5 1.5 0 0 0 18 49.5zM40 46a1 1 0 0 1 .117 1.993L40 48h-8a1 1 0 0 1-.117-1.993L32 46h8zm-20-3h-4v2h4v-2zm39.764-30H14.236a.993.993 0 0 0-.83.444l-.064.109L2.618 35h68.764L60.658 13.553a.995.995 0 0 0-.894-.553z" fill-rule="evenodd" fill="#fff"/>
</svg>
