<svg width="68" height="96" viewBox="0 0 68 96" xmlns="http://www.w3.org/2000/svg">
    <path d="M10 56v2H2v30h64V58H24v-2h42c1.103 0 2 .897 2 2v30c0 1.103-.897 2-2 2H2c-1.103 0-2-.897-2-2V58c0-1.103.897-2 2-2h8zM6 76a25.997 25.997 0 0 1 20 0v6a2 2 0 0 1-2 2H8a2 2 0 0 1-2-2zm10-15a1 1 0 0 1 1 1v7a1 1 0 1 1-2 0v-7a1 1 0 0 1 1-1zm8-14a1 1 0 1 1 0 2c-3.859 0-7 3.141-7 7a1 1 0 1 1-2 0c0-4.963 4.037-9 9-9zm28-8a1 1 0 0 1 1 1c0 4.962-4.037 9-9 9a1 1 0 1 1 0-2c3.859 0 7-3.14 7-7a1 1 0 0 1 1-1zm-13 8a1 1 0 1 1 0 2h-8a1 1 0 1 1 0-2h8zM66 6c1.103 0 2 .897 2 2v30c0 1.103-.897 2-2 2h-8v-2h8V8H2v30h42v2H2c-1.103 0-2-.897-2-2V8c0-1.103.897-2 2-2h64zM52.707 25.293l3.657 3.657a.999.999 0 1 1-1.414 1.414L53 28.414V34a1 1 0 1 1-2 0v-5.586l-1.95 1.95a.999.999 0 1 1-1.414-1.414l3.657-3.657a.999.999 0 0 1 1.414 0zM60 12a2 2 0 0 1 2 2v6a25.997 25.997 0 0 1-20 0v-6a2 2 0 0 1 2-2h16z" fill-rule="evenodd" fill="#ffffff"/>
</svg>
