<svg width="29" height="96" viewBox="0 0 29 96" xmlns="http://www.w3.org/2000/svg">
    <path d="M28.75 42.74v-9.575a2.395 2.395 0 0 0-2.396-2.394h-1.198v-4.787c0-.66-.536-1.197-1.198-1.197h-2.395c-.662 0-1.198.536-1.198 1.197v4.787H16.77v-9.574c0-.661-.536-1.197-1.198-1.197h-2.396c-.662 0-1.198.536-1.198 1.197v9.574H8.385v-4.787c0-.66-.536-1.197-1.197-1.197H4.792c-.662 0-1.198.536-1.198 1.197v4.787H2.396A2.395 2.395 0 0 0 0 33.165v9.574c0 5.288 4.29 9.575 9.583 9.575h3.594v7.372c0 1.219.485 2.388 1.347 3.25a4.602 4.602 0 0 0 3.253 1.346h3.785a2.395 2.395 0 0 1 2.396 2.394v8.377a1.197 1.197 0 0 0 2.396 0v-8.377a4.79 4.79 0 0 0-4.791-4.788H17.8a2.205 2.205 0 0 1-2.228-2.178v-7.396h3.594c5.292 0 9.583-4.287 9.583-9.575zM9.583 49.92a7.184 7.184 0 0 1-7.187-7.18v-9.575h23.958v9.574a7.184 7.184 0 0 1-7.187 7.181H9.583z" fill-rule="evenodd" fill="#ffffff"/>
</svg>
