<svg width="67" height="96" xmlns="http://www.w3.org/2000/svg">
    <path d="M6 76V66h8v10H6zm14 0V66h8v10h-8zm14-16V50h8v10h-8zM6 60V50h8v10H6zm14 0V50h8v10h-8zm14-16V34h8v10h-8zM6 44V34h8v10H6zm14 0V34h8v10h-8zm22 38h3a1 1 0 0 0 1-1V28H2v53a1 1 0 0 0 1 1h31V66h8v16zm-6 0h4V68h-4v14zM2 26h44V14H2v12zm50 25v2h2v4h-2v2h-4v22c0 1.654-1.346 3-3 3H3c-1.654 0-3-1.346-3-3V13a1 1 0 0 1 1-1h46a1 1 0 0 1 1 1v38h4zm7.414 3H66a1 1 0 1 1 0 2h-6.586l1.95 1.95a.999.999 0 1 1-1.414 1.414l-3.656-3.656a1.001 1.001 0 0 1 0-1.416l3.656-3.656a.999.999 0 1 1 1.414 1.414L59.414 54zM8 74h4v-6H8v6zm14 0h4v-6h-4v6zm14-32h4v-6h-4v6zM8 42h4v-6H8v6zm14 0h4v-6h-4v6z" fill-rule="evenodd" fill="#fff"/>
</svg>
