<svg width="44" height="96" xmlns="http://www.w3.org/2000/svg">
    <path d="M42 7c1.054 0 1.918.816 1.995 1.85L44 9v78a2.001 2.001 0 0 1-1.85 1.995L42 89H2a2.001 2.001 0 0 1-1.995-1.85L0 87V9c0-1.054.816-1.918 1.85-1.995L2 7h40zm0 12H2v68h28V72h8v15h4V19zm-6 55h-4v13h4V74zm-22-2v11H6V72h8zm12 0v11h-8V72h8zm-14 2H8v7h4v-7zm12 0h-4v7h4v-7zM14 56v11H6V56h8zm12 0v11h-8V56h8zm12 0v11h-8V56h8zm-26 2H8v7h4v-7zm12 0h-4v7h4v-7zm12 0h-4v7h4v-7zm2-18v11h-8V40h8zm-24 0v11H6V40h8zm12 0v11h-8V40h8zm10 2h-4v7h4v-7zm-24 0H8v7h4v-7zm12 0h-4v7h4v-7zm14-18v11h-8V24h8zm-24 0v11H6V24h8zm12 0v11h-8V24h8zm10 2h-4v7h4v-7zm-24 0H8v7h4v-7zm12 0h-4v7h4v-7z" fill-rule="evenodd" fill="#fff"/>
</svg>
