<svg width="62" height="96" viewBox="0 0 62 96" xmlns="http://www.w3.org/2000/svg">
    <path d="M15 31a1 1 0 0 1 1 1v32a1 1 0 0 1-1 1H-5a1 1 0 0 1-1-1V32a1 1 0 0 1 1-1h20zm-1 2H-4v30h18V33zm19 24a1 1 0 0 1 0 2h-4a1 1 0 0 1 0-2h4zm-2-4a1 1 0 1 1 0 2 1 1 0 0 1 0-2zm36-22a1 1 0 0 1 1 1v20a1 1 0 0 1-1 1H47a1 1 0 0 1-1-1V32a1 1 0 0 1 1-1h20zM56 43h-8v8h8v-8zm10 0h-8v8h8v-8zm-35 6a1 1 0 1 1 0 2 1 1 0 0 1 0-2zm-20-2a1 1 0 0 1 0 2H9a1 1 0 0 1 0-2h2zm24-10a1 1 0 0 1 1 1v8a1 1 0 0 1-1 1h-8a1 1 0 0 1-1-1v-8a1 1 0 0 1 1-1h8zm4.586 2.172L41 40.586l1.414-1.414a1 1 0 1 1 1.414 1.414L42.414 42l1.414 1.414a1 1 0 1 1-1.414 1.414L41 43.414l-1.414 1.414a1 1 0 1 1-1.414-1.414L39.586 42l-1.414-1.414a1 1 0 1 1 1.414-1.414zm-20 0L21 40.586l1.414-1.414a1 1 0 1 1 1.414 1.414L22.414 42l1.414 1.414a1 1 0 1 1-1.414 1.414L21 43.414l-1.414 1.414a1 1 0 1 1-1.414-1.414L19.586 42l-1.414-1.414a1 1 0 1 1 1.414-1.414zM56 33h-8v8h8v-8zm10 0h-8v8h8v-8zm-35 0a1 1 0 1 1 0 2 1 1 0 0 1 0-2zm0-4a1 1 0 1 1 0 2 1 1 0 0 1 0-2zm2-4a1 1 0 0 1 0 2h-4a1 1 0 0 1 0-2h4z" fill-rule="evenodd" fill="#ffffff"/>
</svg>
