<svg width="74" height="96" viewBox="0 0 74 96" xmlns="http://www.w3.org/2000/svg">
    <path d="M17 31a1 1 0 011 1v32a1 1 0 01-1 1H-3a1 1 0 01-1-1V32a1 1 0 011-1h20zm-1 2H-2v30h18V33zm23 24a1 1 0 010 2h-4a1 1 0 010-2h4zm-2-4a1 1 0 110 2 1 1 0 010-2zm40-22a1 1 0 011 1v20a1 1 0 01-1 1H57a1 1 0 01-1-1V32a1 1 0 011-1h20zM66 43h-8v8h8v-8zm10 0h-8v8h8v-8zm-39 6a1 1 0 110 2 1 1 0 010-2zm-24-2a1 1 0 010 2h-2a1 1 0 010-2h2zm28-10a1 1 0 011 1v8a1 1 0 01-1 1h-8a1 1 0 01-1-1v-8a1 1 0 011-1h8zm-20 1a1 1 0 011 1v6a1 1 0 01-2 0v-6a1 1 0 011-1zm32 0a1 1 0 011 1v6a1 1 0 01-2 0v-6a1 1 0 011-1zm-28 3a1 1 0 110 2 1 1 0 010-2zm4 0a1 1 0 110 2 1 1 0 010-2zm16 0a1 1 0 110 2 1 1 0 010-2zm4 0a1 1 0 110 2 1 1 0 010-2zm17-8h-8v8h8v-8zm10 0h-8v8h8v-8zm-39 0a1 1 0 110 2 1 1 0 010-2zm0-4a1 1 0 110 2 1 1 0 010-2zm2-4a1 1 0 010 2h-4a1 1 0 010-2h4z" fill-rule="evenodd" fill="#ffffff"/>
</svg>
