<svg width="54" height="96" xmlns="http://www.w3.org/2000/svg">
    <path d="M27 21c14.888 0 27 12.113 27 27 0 14.888-12.112 27-27 27S0 62.888 0 48c0-14.887 12.112-27 27-27zm24.975 28h-4.026c-.506 10.661-8.98 19.247-19.594 19.93l-.355.02v4.025C40.99 72.46 51.46 61.99 51.975 49zM6.051 49H2.025c.51 12.86 10.777 23.25 23.586 23.956l.389.019V68.95C15.221 68.438 6.563 59.78 6.051 49zM27 29C16.523 29 8 37.524 8 48c0 10.477 8.523 19 19 19s19-8.523 19-19c0-10.476-8.523-19-19-19zM15 41a1 1 0 0 1 .993.883L16 42v8a1 1 0 0 1-1.993.117L14 50v-8a1 1 0 0 1 1-1zm6-6a1 1 0 0 1 .993.883L22 36v14a1 1 0 0 1-1.993.117L20 50V36a1 1 0 0 1 1-1zm6-2a1 1 0 0 1 .993.883L28 34v16a1 1 0 0 1-1.993.117L26 50V34a1 1 0 0 1 1-1zm6 2a1 1 0 0 1 .993.883L34 36v14a1 1 0 0 1-1.993.117L32 50V36a1 1 0 0 1 1-1zm6 6a1 1 0 0 1 1 1v8a1 1 0 1 1-2 0v-8a1 1 0 0 1 1-1zM26 23.026C13.14 23.534 2.75 33.8 2.043 46.61l-.018.39h4.026c.506-10.66 8.98-19.247 19.594-19.93l.355-.02v-4.024zm2 0v4.025c10.66.506 19.246 8.98 19.93 19.594l.019.355h4.026C51.46 34.01 40.99 23.54 28 23.026z" fill-rule="evenodd" fill="#fff"/>
</svg>
