<svg width="52" height="96" viewBox="0 0 52 96" xmlns="http://www.w3.org/2000/svg">
    <g fill-rule="evenodd">
        <path d="M-22 0h96v96h-96z" fill="#ffffff"/>
        <path d="M22 40.414v4h2v2h2v4h-2v2h-2v4h29.347c.361 0 .653.447.653 1 0 .553-.292 1-.653 1H50v28H0v-2h4v-17h10v17h5c.552 0 1-.449 1-1v-43h2zm26 18H22v25c0 .35-.06.688-.172 1H48v-26zm-36 11H6v15h6v-15zm32-5v14H26v-14h18zm-10 2h-6v10h6v-10zm8 0h-6v10h6v-10zm-28-22v14H4v-14h10zm-2 2H6v10h6v-10zm21.364-2.364a.999.999 0 010 1.414l-1.95 1.95H38a1 1 0 110 2h-6.586l1.95 1.95a.999.999 0 11-1.414 1.414l-3.634-3.634a.997.997 0 01-.312-.825.997.997 0 01.318-.64l3.628-3.629a.999.999 0 011.414 0zM0 13l25.707 25.707A1 1 0 0125 40.414H0v-2h22.586L0 15.828V13z" fill="#ffffff"/>
    </g>
</svg>
