<svg width="84" height="96" viewBox="0 0 84 96" xmlns="http://www.w3.org/2000/svg">
    <path d="M28 84a1 1 0 0 1 1 1v6a1 1 0 0 1-2 0v-6a1 1 0 0 1 1-1zm28 0a1 1 0 0 1 1 1v6a1 1 0 0 1-2 0v-6a1 1 0 0 1 1-1zm-24 3a1 1 0 1 1 0 2 1 1 0 0 1 0-2zm4 0a1 1 0 1 1 0 2 1 1 0 0 1 0-2zm4 0a1 1 0 1 1 0 2 1 1 0 0 1 0-2zm4 0a1 1 0 1 1 0 2 1 1 0 0 1 0-2zm4 0a1 1 0 1 1 0 2 1 1 0 0 1 0-2zm4 0a1 1 0 1 1 0 2 1 1 0 0 1 0-2zM0 9.59l25.707 25.707a1 1 0 0 1-.587 1.7l-.12.007h-3v4h4v2h2v4h-2v2h-4v29a3.004 3.004 0 0 1-2.824 2.995l-.176.005H0v-2h4v-17h10v17h5c.513 0 .935-.387.993-.884l.007-.116v-41H0v-2h22.586L0 12.418V9.59zm84 0v2.828L61.414 35.004H84v2H64v41c0 .551.448 1 1 1h5v-17h10v17h4v2H65c-1.654 0-3-1.346-3-3v-41h-3a1 1 0 0 1-.707-1.707L84 9.59zM12 64.004H6v15h6v-15zm66 0h-6v15h6v-15zm-64-23v14H4v-14h10zm66 0v14H70v-14h10zm-68 2H6v10h6v-10zm66 0h-6v10h6v-10z" fill-rule="evenodd" fill="#ffffff"/>
</svg>
