<svg width="64" height="96" viewBox="0 0 64 96" xmlns="http://www.w3.org/2000/svg">
    <path d="M42 39v6h2v2h2v4h-2v2h-2v29a3.004 3.004 0 01-2.824 2.995L39 85H20v-2h4V66h10v17h5c.552 0 1-.449 1-1V39h2zM32 68h-6v15h6V68zm2-25v14H24V43h10zm-2 2h-6v10h6V45zm21.364-.364a.999.999 0 010 1.414L51.414 48H58a1 1 0 110 2h-6.586l1.95 1.95a.999.999 0 11-1.414 1.414l-3.634-3.634a.997.997 0 01-.312-.825.997.997 0 01.318-.64l3.628-3.629a.999.999 0 011.414 0zM20 11.586l25.707 25.707A1 1 0 0145 39H20v-2h22.586L20 14.414v-2.828z" fill-rule="evenodd" fill="#ffffff"/>
</svg>
