<svg width="62" height="96" xmlns="http://www.w3.org/2000/svg">
    <path d="M42 9.657v6h5a1 1 0 0 1 .993.884l.007.116v68a3.004 3.004 0 0 1-2.824 2.995l-.176.005H3a3.004 3.004 0 0 1-2.995-2.824L0 84.657v-68a1 1 0 0 1 .883-.993L1 15.657h34v-6h7zm4 22H2v53a1 1 0 0 0 .883.993l.117.007h31v-16h8v16h3a1 1 0 0 0 .993-.883l.007-.117v-53zm-6 40h-4v14h4v-14zm-26-2v10H6v-10h8zm14 0v10h-8v-10h8zm-16 2H8v6h4v-6zm14 0h-4v6h4v-6zm16-18v10h-8v-10h8zm-28 0v10H6v-10h8zm14 0v10h-8v-10h8zm12 2h-4v6h4v-6zm-28 0H8v6h4v-6zm14 0h-4v6h4v-6zm16-18v10h-8v-10h8zm-28 0v10H6v-10h8zm14 0v10h-8v-10h8zm12 2h-4v6h4v-6zm-28 0H8v6h4v-6zm14 0h-4v6h4v-6zm9-22H2v12h44v-12h-4v5h-7v-5zm19.95-8.364a.999.999 0 1 1 1.414 1.414l-1.95 1.95H61a1 1 0 1 1 0 2h-6.586l1.95 1.95a.999.999 0 1 1-1.414 1.414l-3.656-3.656a1 1 0 0 1 0-1.416z" fill-rule="evenodd" fill="#fff"/>
</svg>
