<svg width="67" height="96" xmlns="http://www.w3.org/2000/svg">
    <path d="M8 74h4v-6H8v6zm-2 2V66h8v10H6zm16-2h4v-6h-4v6zm-2 2V66h8v10h-8zm16-18h4v-6h-4v6zm-2 2V50h8v10h-8zM8 58h4v-6H8v6zm-2 2V50h8v10H6zm16-2h4v-6h-4v6zm-2 2V50h8v10h-8zm14-16V34h8v10h-8zM6 44V34h8v10H6zm14 0V34h8v10h-8zm25 38a1 1 0 0 0 1-1V28H2v53a1 1 0 0 0 1 1h31V66h8v16h3zm-9 0h4V68h-4v14zM2 26h44V14H2v12zm50 9v2h2v4h-2v2h-4v38c0 1.654-1.346 3-3 3H3c-1.654 0-3-1.346-3-3V13a1 1 0 0 1 1-1h46a1 1 0 0 1 1 1v22h4zm14 3a1 1 0 1 1 0 2h-6.586l1.95 1.95a.999.999 0 1 1-1.414 1.414l-3.656-3.656a1 1 0 0 1 0-1.416l3.656-3.656a.999.999 0 1 1 1.414 1.414L59.414 38H66z" fill-rule="evenodd" fill="#fff"/>
</svg>
