<svg width="64" height="96" xmlns="http://www.w3.org/2000/svg">
    <path d="M0 24l64 5.518v2.006l-4-.345V71.09h-2V31.007L2 26.18v44.91H0V24zm11 26.09h4v-2h-4v2zm2 7.5a1.5 1.5 0 1 0-.001-3.001A1.5 1.5 0 0 0 13 57.59zm-5-10.5c1.803-1.803 8.197-1.803 10 0v10a2 2 0 0 1-2 2h-6a2 2 0 0 1-2-2v-10zm38.408 8.634a.999.999 0 0 0 .501 1.866c.17 0 .342-.043.5-.134l1.731-1a1 1 0 1 0-1-1.732l-1.732 1zm-14.45 1.366a1 1 0 0 0-.366-1.366l-1.733-1a1 1 0 0 0-1 1.732l1.733 1a1 1 0 0 0 1.366-.366zm-.755-11.82l-2.13 6.82h19.855l-2.13-6.82a1.003 1.003 0 0 0-.723-.674c-2.128-.511-7.819-1.527-14.15-.001a1.003 1.003 0 0 0-.722.675zm21.052 4.954a1 1 0 0 1 1 1.732l-1.732 1a.908.908 0 0 1-.203.084l.434 1.39c1.222 3.912 1.086 2.715.02 11.66H50v2a1 1 0 0 1-1 1h-2a1 1 0 0 1-1-1v-2H32v2a1 1 0 0 1-1 1h-2a1 1 0 0 1-1-1v-2h-1.775c-1.058-8.884-1.218-7.694.021-11.66l.433-1.39a.928.928 0 0 1-.203-.084l-1.732-1a1.001 1.001 0 0 1 1-1.732l1.538.888c.92-2.944 2.122-6.793 2.18-6.974a2.005 2.005 0 0 1 1.405-1.34c5.222-1.361 11.176-1.326 16.266 0 .668.175 1.2.68 1.406 1.34l2.18 6.974 1.536-.888z" fill-rule="evenodd" fill="#fff"/>
</svg>
