<svg width="35" height="96" xmlns="http://www.w3.org/2000/svg">
    <path d="M13.807 22.847c8.456 5.08 13.459 11.659 16.166 16.283 3.195 5.454 5.028 11.239 5.028 15.87 0 10.832-7.694 19-17.895 19C7.192 74 0 67.368 0 58.232c0-5.037 1.337-8.635 5.297-14.26.485-.688 1.05-1.387 1.647-2.126 3.058-3.783 6.865-8.49 5.36-17.985-.06-.384.107-.768.43-.986a1.009 1.009 0 0 1 1.073-.028zm.735 2.83c.78 8.989-3.13 13.826-6.041 17.426-.578.713-1.122 1.387-1.569 2.02-3.733 5.304-4.931 8.489-4.931 13.109 0 6.446 4.146 11.463 10.356 13.153C9.8 69.65 8.15 66.76 8.15 63.76c0-4.7 2.284-8.317 5.096-11.44-.964 2.65 0 7.082 1.88 10.34-.628-5.987 5.64-14.102 5.058-18.397 0 0 7.486 10.184 6.972 18.642-.178 2.9-1.184 5.617-2.99 7.505C29.539 67.778 33 62.088 33 55c0-6.781-5.051-20.41-18.459-29.322z" fill-rule="evenodd" fill="#fff"/>
</svg>
