<svg width="52" height="96" viewBox="0 0 52 96" xmlns="http://www.w3.org/2000/svg">
    <path d="M24 22c1.103 0 2 .897 2 2v2.048c0 .712-.383 1.376-.999 1.732A1.97 1.97 0 0 0 24 29.5a1.97 1.97 0 0 0 1 1.719c.617.357 1 1.021 1 1.733v2.093C31.6 35.552 36 40.272 36 46v33c0 1.654-1.346 3-3 3H3c-1.654 0-3-1.346-3-3V46c0-5.728 4.402-10.448 10-10.955v-2.093c0-.657.326-1.274.862-1.645l.138-.088a1.97 1.97 0 0 0 1-1.719 1.97 1.97 0 0 0-1-1.719c-.617-.356-1-1.02-1-1.733V24c0-1.103.897-2 2-2h12zM12 70H6v1c0 1.654-1.346 3-3 3H2v5c0 .552.449 1 1 1h30a1 1 0 0 0 1-1v-5h-1c-1.654 0-3-1.346-3-3v-1h-6v1c0 1.654-1.346 3-3 3h-6c-1.654 0-3-1.346-3-3v-1zm13-33H11c-4.962 0-9 4.038-9 9v26h1c.551 0 1-.448 1-1v-1c0-1.103.897-2 2-2h6c1.103 0 2 .897 2 2v1c0 .552.449 1 1 1h6a1 1 0 0 0 1-1v-1c0-1.103.897-2 2-2h6c1.103 0 2 .897 2 2v1a1 1 0 0 0 1 1h1V46c0-4.962-4.037-9-9-9zm15.47-25.883C46.815 14.491 52 21.081 52 27c0 5.734-3.352 10-10 10-5.382 0-9-3.289-9-8 0-2.805.805-4.586 2.858-7.413l.377-.517c2.399-3.295 3.158-5.27 2.77-8.966a1 1 0 0 1 1.464-.987zM24 24H12v2.048c1.234.714 2 2.036 2 3.452a4.002 4.002 0 0 1-1.999 3.451L12 35h12v-2.048a4.003 4.003 0 0 1-2-3.452 4 4 0 0 1 2-3.451V24zm17.103-10.193c.001 3.166-1.012 5.365-3.25 8.44l-.377.516C35.65 25.278 35 26.715 35 29c0 2.484 1.305 4.422 3.56 5.367-.434-.604-.664-1.343-.664-2.159 0-3.791 3.894-4.356 5.104-9.208 2.558 2.071 4 5 4 8 0 .977-.234 2.193-.915 3.18C48.726 32.927 50 30.32 50 27c0-4.595-3.88-9.953-8.897-13.193z" fill-rule="evenodd" fill="#ffffff"/>
</svg>
