<svg width="90" height="96" xmlns="http://www.w3.org/2000/svg">
    <path d="M89 3a1 1 0 0 1 .993.883L90 4v8a1 1 0 0 1-.883.993L89 13h-3v6h3a1 1 0 0 1 .993.883L90 20v56a1 1 0 0 1-.883.993L89 77h-3v6h3a1 1 0 0 1 .993.883L90 84v8a1 1 0 0 1-.883.993L89 93H61a1 1 0 0 1-.993-.883L60 92v-8a1 1 0 0 1 .883-.993L61 83h3v-6h-3v3a1 1 0 0 1-.883.993L60 81h-7a1 1 0 0 1-.993-.883L52 80v-3h-7a1 1 0 0 1-.993-.883L44 76v-8a1 1 0 0 1 1-1h7V53H14v6h31a1 1 0 0 1 .993.883L46 60a1 1 0 0 1-.883.993L45 61h-7v7a1 1 0 0 1-.883.993L37 69H1a1 1 0 0 1-.993-.883L0 68V27a1 1 0 0 1 .883-.993L1 26h36a1 1 0 0 1 .993.883L38 27v8h14v-6h-7a1 1 0 0 1-.993-.883L44 28v-8a1 1 0 0 1 .883-.993L45 19h7v-3a1 1 0 0 1 .883-.993L53 15h7a1 1 0 0 1 .993.883L61 16v3h3v-6h-3a1 1 0 0 1-.993-.883L60 12V4a1 1 0 0 1 .883-.993L61 3h28zm-5 74H66v6h11a1 1 0 0 1 .117 1.993L77 85H62v6h26v-6h-3a1 1 0 0 1-1-1v-7zM59 17h-5v62h5V40a1 1 0 0 1 1.993-.117L61 40v35h27V21H61v7a1 1 0 0 1-1.993.117L59 28V17zm-7 52h-6v6h6v-6zm-16-8H14v6h22v-6zM12 28H2v39h10V44a1 1 0 0 1 .883-.993L13 43h39v-6H13a1 1 0 0 1-.993-.883L12 36v-8zm40 17H14v6h38v-6zM36 28H14v7h22v-7zm16-7h-6v6h6v-6zM88 5H62v6h7a1 1 0 0 1 .117 1.993L69 13h-3v6h18v-6h-7a1 1 0 0 1-.117-1.993L77 11h11V5z" fill-rule="evenodd" fill="#fff"/>
</svg>
