<svg width="58" height="96" xmlns="http://www.w3.org/2000/svg">
    <path d="M50.645 22a2 2 0 011.791 1.109l.066.148 4.401 11a2.002 2.002 0 01-1.693 2.736l-.165.007H54v39a3.004 3.004 0 01-2.824 2.995L51 79H31c-.768 0-1.47-.29-2.001-.767l-.124.107a2.986 2.986 0 01-1.641.651L27 79H7a3.003 3.003 0 01-2.995-2.824L4 76V37H2.954a2 2 0 01-1.916-2.573l.06-.17 4.4-11a2 2 0 011.693-1.25L7.353 22h43.292zM52 37H30v39a1 1 0 00.883.993L31 77h5V62h10v15h5c.512 0 .935-.387.993-.884L52 76V37zm-24 0H6v39a1 1 0 00.883.993L7 77h5V62h10v15h5c.512 0 .935-.387.993-.884L28 76V37zm16 27h-6v13h6V64zm-24 0h-6v13h6V64zm28-22v10H34V42h14zm-24 0v10H10V42h14zm22 2h-4v6h4v-6zm-6 0h-4v6h4v-6zm-24 0h-4v6h4v-6zm6 0h-4v6h4v-6zm5.999-20H7.353L2.954 35H28l-.001-11zm22.646 0H30v11h25.046l-4.4-11z" fill-rule="evenodd" fill="#fff"/>
</svg>
