<svg width="74" height="96" viewBox="0 0 74 96" xmlns="http://www.w3.org/2000/svg">
    <path d="M59.764 11c1.143 0 2.172.635 2.683 1.658l10.724 21.448a2.011 2.011 0 01-.089 1.947 2.009 2.009 0 01-1.7.947H67v45c0 1.654-1.346 3-3 3H10c-1.654 0-3-1.346-3-3V37H2.618a2.012 2.012 0 01-1.702-.949 2.011 2.011 0 01-.087-1.946l10.724-21.447A2.983 2.983 0 0114.236 11zM65 61H9v21a1 1 0 001 1h54a1 1 0 001-1V61zm-5.236-48H14.236a.995.995 0 00-.894.553L2.618 35H29a1 1 0 110 2H9v22h56V37H45a1 1 0 110-2h26.382L60.658 13.553a.995.995 0 00-.894-.553zM13.001 43c1.802-1.803 8.197-1.803 10 0v10a2 2 0 01-2 2h-6a2 2 0 01-2-2zm5 7.5a1.5 1.5 0 100 3.001 1.5 1.5 0 000-3.001zM36 44a1 1 0 011 1c0 2.757-2.244 5-5 5h-5a1 1 0 110-2h5c1.653 0 3-1.346 3-3a1 1 0 011-1zm-16 0h-4v2h4v-2zm16-11a1 1 0 011 1v6a1 1 0 11-2 0v-6a1 1 0 011-1zm15-14c1.802-1.803 8.197-1.803 10 0v10a2 2 0 01-2 2h-6a2 2 0 01-2-2zm-7.708 1.636a.999.999 0 011.414 0l3.657 3.657a.999.999 0 010 1.414l-3.657 3.658a.996.996 0 01-.707.292 1 1 0 01-.707-1.707l1.95-1.95H40c-1.654 0-3 1.346-3 3a1 1 0 11-2 0c0-2.757 2.243-5 5-5h5.243l-1.95-1.95a.999.999 0 010-1.414zM56.001 26.5a1.5 1.5 0 100 3 1.5 1.5 0 000-3zm2-6.5h-4v2h4v-2z" fill-rule="evenodd" fill="#ffffff"/>
</svg>
