<svg width="48" height="32" xmlns="http://www.w3.org/2000/svg">
    <g fill-rule="evenodd" fill="#39393a">
        <path d="M44.997 8.013H4.02C2.904 8.013 2 9.02 2 10.262c0 1.241.904 2.248 2.02 2.248h.456c.387 1.208 1.495 4.697 1.928 6.316 1.281 4.677 4.836 8.139 9.17 8.93l-.813 1.812c-.143.316-.03.701.254.861.08.045.17.069.26.071a.574.574 0 00.513-.353l1.01-2.25h14.636c.26 0 .52 0 .78-.038l1.015 2.256a.58.58 0 00.514.385.562.562 0 00.26-.07c.283-.161.396-.546.254-.862l-.826-1.837c4.283-.839 7.78-4.286 9.044-8.918.433-1.619 1.541-5.14 1.928-6.316h.577c1.116 0 2.02-1.006 2.02-2.248C47 9.007 46.096 8 44.98 8l.017.013zm-3.624 10.44c-1.333 4.868-5.368 8.193-9.939 8.192h-13.99c-4.568-.002-8.6-3.327-9.932-8.192-.404-1.51-1.34-4.497-1.807-5.956h37.469c-.468 1.472-1.403 4.446-1.801 5.956zm3.624-7.228H4.02c-.478 0-.866-.431-.866-.963 0-.533.388-.964.866-.964h40.977c.478 0 .866.431.866.964 0 .532-.388.963-.866.963z" fill-rule="nonzero"/>
        <path d="M5.558 1.364h1.116v1.363H5v1.364h3.347c.924 0 1.674.916 1.674 2.045h1.115c0-1.882-1.248-3.409-2.789-3.409H7.79V1.364h1.116c.308 0 .558-.306.558-.682 0-.377-.25-.682-.558-.682H5.558C5.25 0 5 .305 5 .682c0 .376.25.682.558.682z"/>
    </g>
</svg>
