<svg width="96" height="96" viewBox="0 0 96 96" xmlns="http://www.w3.org/2000/svg">
    <path d="M43 16a1 1 0 011 1v9.764l2.684 5.368 2.791 5.581c.347.696.525 1.454.525 2.233V67h4V20h26v5.67l4 6.028V38h-2v24h2v18H54V69h-4v9a2 2 0 01-1.85 1.995L48 80H26a2 2 0 01-2-2V53H14a2 2 0 01-1.995-1.85L12 51V17a1 1 0 012 0v34h10v-4h-4a2 2 0 01-1.995-1.85L18 45V17a1 1 0 012 0v28h4v-5.054c0-.681.136-1.347.403-1.97l.123-.263L30 26.762V17a1 1 0 01.883-.993L31 16a1 1 0 011 1v9h10v-9a1 1 0 01.883-.993zm35 6H56v45h10a1 1 0 01.993.883L67 68a1 1 0 01-1 1H56v9h26V64H62a2 2 0 01-2-2V38a2 2 0 012-2h20v-3.698l-4-6.03V22zm-35.618 6H31.618l-5.303 10.607A2.98 2.98 0 0026 39.946L25.999 45H35a1 1 0 01.993.883L36 46a1 1 0 01-1 1h-9.001v4H35a1 1 0 01.993.883L36 52a1 1 0 01-1 1h-9.001L26 78h22v-9h-4v6H30V61h14v6h4V39.946c0-.391-.074-.77-.219-1.128l-.095-.212L42.382 28zM42 63H32v10h10v-4h-5a1 1 0 01-.993-.883L36 68a1 1 0 011-1h5v-4zm38-25H62v24h18V38zm-7 3.995v1.915c0 1.267.382 2.13 1.43 3.591.08.113.365.506.381.528C76.36 50.176 77 51.645 77 54a6 6 0 01-6 6 6 6 0 01-6-6c0-4.7 2.286-8.025 6.428-10.91L73 41.994zm-1.762 3.74C68.45 48.02 67 50.573 67 54c0 1.05.404 2.004 1.064 2.717A3.867 3.867 0 0168 56c0-2 1-5 3.6-6.054C71.6 54 74 53 74 56c0 .26-.033.512-.095.752A3.994 3.994 0 0075 54c0-1.85-.485-2.963-1.811-4.801l-.385-.533c-.791-1.104-1.297-1.99-1.566-2.93z" fill-rule="evenodd" fill="#39393a"/>
</svg>
