<svg width="96" height="96" xmlns="http://www.w3.org/2000/svg">
    <path d="M41 48h2v4h-2v2h-2v29c0 1.654-1.346 3-3 3H17v-2h4V67h10v17h5c.552 0 1-.449 1-1V40H17v-2h22.586L17 15.414v-2.828l25.707 25.707A1 1 0 0 1 42 40h-3v6h2v2zM23 84h6V69h-6v15zm0-28h6V46h-6v10zm-2 2V44h10v14H21zm53.407 20.366l1.732-1a1 1 0 1 0-1-1.732l-1.732 1a1 1 0 1 0 1 1.732zM61.689 73h14.623l-1.586-5.287a1 1 0 0 0-.958-.713h-9.535a1 1 0 0 0-.958.713L61.689 73zm2.403 5.5a1 1 0 0 0 .5-1.866l-1.732-1a1 1 0 1 0-1 1.732l1.732 1c.158.091.33.134.5.134zm14.547-4.7c.237.838.336 1.709.293 2.578l-.378 6.68a1 1 0 0 1-1 .943H77v1a1 1 0 0 1-1 1h-2a1 1 0 0 1-1-1v-1h-8v1a1 1 0 0 1-1 1h-2a1 1 0 0 1-1-1v-1h-.554a1 1 0 0 1-1-.944l-.377-6.679a8.007 8.007 0 0 1 .292-2.578l-1.616-.933a1 1 0 1 1 1-1.732l1.206.697 1.622-5.405A1.998 1.998 0 0 1 63.489 65h11.023a2 2 0 0 1 1.916 1.426l1.621 5.404 1.206-.697c.231-.132.503-.168.76-.1a1 1 0 0 1 .241 1.833l-1.617.933zM45.316 50.73a.997.997 0 0 1-.312-.825.997.997 0 0 1 .318-.64l3.628-3.629a.999.999 0 1 1 1.414 1.414L48.414 49H55a1 1 0 1 1 0 2h-6.586l1.95 1.95a.999.999 0 1 1-1.414 1.414l-3.634-3.634z" fill-rule="evenodd" fill="#39393a"/>
</svg>
