<svg width="96" height="96" xmlns="http://www.w3.org/2000/svg">
    <path d="M18 12h46a1 1 0 0 1 .993.883L65 13v22h4v2h2v4h-2v2h-4v38a3.004 3.004 0 0 1-2.824 2.995L62 84H20a3.004 3.004 0 0 1-2.995-2.824L17 81V13a1 1 0 0 1 .883-.993L18 12h46zm45 16H19v53a1 1 0 0 0 .883.993L20 82h31V66h8v16h3a1 1 0 0 0 .993-.883L63 81V28zm-6 40h-4v14h4V68zm-26-2v10h-8V66h8zm14 0v10h-8V66h8zm-16 2h-4v6h4v-6zm14 0h-4v6h4v-6zm16-18v10h-8V50h8zm-28 0v10h-8V50h8zm14 0v10h-8V50h8zm12 2h-4v6h4v-6zm-28 0h-4v6h4v-6zm14 0h-4v6h4v-6zm16-18v10h-8V34h8zm-28 0v10h-8V34h8zm14 0v10h-8V34h8zm31.95.636a.999.999 0 1 1 1.414 1.414L76.414 38H83a1 1 0 1 1 0 2h-6.586l1.95 1.95a.999.999 0 1 1-1.414 1.414l-3.656-3.656a1 1 0 0 1 0-1.416zM63 14H19v12h44V14z" fill-rule="evenodd" fill="#39393a"/>
</svg>
