<svg width="96" height="96" xmlns="http://www.w3.org/2000/svg">
    <path d="M23 24a1 1 0 0 1 1-1h48a1 1 0 0 1 1 1v48a1 1 0 0 1-1 1H24a1 1 0 0 1-1-1V24zm2 1v46h46V25H25zm2 3a1 1 0 0 1 1-1h40a1 1 0 0 1 1 1v40a1 1 0 0 1-1 1H28a1 1 0 0 1-1-1V28zm2 1v38h38V29H29zm7 13a1 1 0 0 1 1 1v11a1 1 0 0 1-2 0V43a1 1 0 0 1 1-1zm6-4a1 1 0 0 1 1 1v19a1 1 0 0 1-2 0V39a1 1 0 0 1 1-1zm6-4a1 1 0 0 1 1 1v27a1 1 0 0 1-2 0V35a1 1 0 0 1 1-1zm6 4a1 1 0 0 1 1 1v19a1 1 0 0 1-2 0V39a1 1 0 0 1 1-1zm6 4a1 1 0 0 1 1 1v11a1 1 0 0 1-2 0V43a1 1 0 0 1 1-1z" fill-rule="evenodd" fill="#39393a"/>
</svg>
