<svg width="96" height="96" xmlns="http://www.w3.org/2000/svg">
    <path d="M34 84a1 1 0 01.993.883L35 85v6a1 1 0 01-1.993.117L33 91v-6a1 1 0 011-1zm28 0a1 1 0 011 1v6a1 1 0 01-2 0v-6a1 1 0 011-1zm-24 3a1 1 0 110 2 1 1 0 010-2zm4 0a1 1 0 110 2 1 1 0 010-2zm4 0a1 1 0 110 2 1 1 0 010-2zm4 0a1 1 0 110 2 1 1 0 010-2zm4 0a1 1 0 110 2 1 1 0 010-2zm4 0a1 1 0 110 2 1 1 0 010-2zM6 9.59l25.707 25.707a1 1 0 01-.587 1.7l-.12.007h-3v4h4v2h2v4h-2v2h-4v29a3.004 3.004 0 01-2.824 2.995l-.176.005H6v-2h4v-17h10v17h5a1 1 0 00.993-.884l.007-.116v-41H6v-2h22.586L6 12.418V9.59zm84 0v2.828L67.414 35.004H90v2H70v41c0 .551.448 1 1 1h5v-17h10v17h4v2H71c-1.654 0-3-1.346-3-3v-41h-3a1 1 0 01-.707-1.707L90 9.59zM18 64.004h-6v15h6v-15zm66 0h-6v15h6v-15zm-64-23v14H10v-14h10zm66 0v14H76v-14h10zm-68 2h-6v10h6v-10zm66 0h-6v10h6v-10z" fill-rule="evenodd" fill="#39393a"/>
</svg>
