<svg width="96" height="96" xmlns="http://www.w3.org/2000/svg">
    <path d="M48 21c14.888 0 27 12.113 27 27 0 14.888-12.112 27-27 27S21 62.888 21 48c0-14.887 12.112-27 27-27zm24.975 28h-4.026c-.506 10.661-8.98 19.247-19.594 19.93l-.355.02v4.025C61.99 72.46 72.46 61.99 72.975 49zm-45.924 0h-4.026c.51 12.86 10.777 23.25 23.586 23.956l.389.019V68.95C36.221 68.438 27.563 59.78 27.051 49zM48 29c-10.477 0-19 8.524-19 19 0 10.477 8.523 19 19 19s19-8.523 19-19c0-10.476-8.523-19-19-19zM36 41a1 1 0 0 1 .993.883L37 42v8a1 1 0 0 1-1.993.117L35 50v-8a1 1 0 0 1 1-1zm6-6a1 1 0 0 1 .993.883L43 36v14a1 1 0 0 1-1.993.117L41 50V36a1 1 0 0 1 1-1zm6-2a1 1 0 0 1 .993.883L49 34v16a1 1 0 0 1-1.993.117L47 50V34a1 1 0 0 1 1-1zm6 2a1 1 0 0 1 .993.883L55 36v14a1 1 0 0 1-1.993.117L53 50V36a1 1 0 0 1 1-1zm6 6a1 1 0 0 1 1 1v8a1 1 0 1 1-2 0v-8a1 1 0 0 1 1-1zM47 23.026C34.14 23.534 23.75 33.8 23.043 46.61l-.018.389h4.026c.506-10.66 8.98-19.247 19.594-19.93l.355-.02v-4.024zm2 0v4.025c10.66.506 19.246 8.98 19.93 19.594l.019.355h4.026C72.46 34.01 61.99 23.54 49 23.026z" fill-rule="evenodd" fill="#39393a"/>
</svg>
