<svg width="96" height="96" viewBox="0 0 96 96" xmlns="http://www.w3.org/2000/svg">
    <path d="M44 40.414v4h2v2h2v4h-2v2h-2v4h29.347c.361 0 .653.447.653 1 0 .553-.292 1-.653 1H72v28H22v-2h4v-17h10v17h5c.552 0 1-.449 1-1v-43h2zm26 18H44v25c0 .35-.06.688-.172 1H70v-26zm-36 11h-6v15h6v-15zm32-5v14H48v-14h18zm-10 2h-6v10h6v-10zm8 0h-6v10h6v-10zm-28-22v14H26v-14h10zm-2 2h-6v10h6v-10zm21.364-2.364a.999.999 0 0 1 0 1.414l-1.95 1.95H60a1 1 0 1 1 0 2h-6.586l1.95 1.95a.999.999 0 1 1-1.414 1.414l-3.634-3.634a.997.997 0 0 1-.312-.825.997.997 0 0 1 .318-.64l3.628-3.629a.999.999 0 0 1 1.414 0zM22 13l25.707 25.707A1 1 0 0 1 47 40.414H22v-2h22.586L22 15.828V13z" fill-rule="evenodd" fill="#39393a"/>
</svg>
