<svg width="96" height="96" xmlns="http://www.w3.org/2000/svg">
    <path d="M12 79.004h6v-15h-6v15zm20-36h2v4h-2v2h-4v29c0 1.654-1.346 3-3 3H6v-2h4v-17h10v17h5c.552 0 1-.449 1-1v-41H6v-2h22.586L6 12.418V9.59l25.707 25.707A1 1 0 0 1 31 37.004h-3v4h4v2zm-20 10h6v-10h-6v10zm-2 2v-14h10v14H10zm60 23c0 .551.448 1 1 1h5v-17h10v17h4v2H71c-1.654 0-3-1.346-3-3v-41h-3a1 1 0 0 1-.707-1.707L90 9.59v2.828L67.414 35.004H90v2H70v41zm14 1v-15h-6v15h6zm0-26v-10h-6v10h6zm2 2H76v-14h10v14zM33 85a1 1 0 0 1 2 0v6a1 1 0 0 1-2 0v-6zm5 2a1 1 0 1 1 0 2 1 1 0 0 1 0-2zm4 0a1 1 0 1 1 0 2 1 1 0 0 1 0-2zm4 0a1 1 0 1 1 0 2 1 1 0 0 1 0-2zm4 0a1 1 0 1 1 0 2 1 1 0 0 1 0-2zm4 0a1 1 0 1 1 0 2 1 1 0 0 1 0-2zm4 0a1 1 0 1 1 0 2 1 1 0 0 1 0-2zm4-3a1 1 0 0 1 1 1v6a1 1 0 0 1-2 0v-6a1 1 0 0 1 1-1z" fill-rule="evenodd" fill="#39393a"/>
</svg>
