<svg width="96" height="96" xmlns="http://www.w3.org/2000/svg">
    <path d="M68 77V19H28v68h40V77zm2 2v8a2 2 0 0 1-2 2H28a2 2 0 0 1-2-2v-8H16v-2h10V9a2 2 0 0 1 2-2h40a2 2 0 0 1 2 2v68h10v2H70zM32 67V56h8v11h-8zm2-2h4v-7h-4v7zm10 2V56h8v11h-8zm2-2h4v-7h-4v7zm10 2V56h8v11h-8zm2-2h4v-7h-4v7zm-2-14V40h8v11h-8zm2-2h4v-7h-4v7zm-2-14V24h8v11h-8zm2-2h4v-7h-4v7zM32 51V40h8v11h-8zm2-2h4v-7h-4v7zm10 2V40h8v11h-8zm2-2h4v-7h-4v7zM32 35V24h8v11h-8zm2-2h4v-7h-4v7zm10 2V24h8v11h-8zm2-2h4v-7h-4v7zm10 54V72h8v15h-8zm-24-4V72h8v11h-8zm12 0V72h8v11h-8z" fill-rule="evenodd" fill="#39393a"/>
</svg>
