<svg width="96" height="96" xmlns="http://www.w3.org/2000/svg">
    <path d="M43.358 71.385c-2.558-1.734-4.208-4.625-4.208-7.624 0-4.7 2.284-8.317 5.096-11.44-.965 2.65 0 7.082 1.88 10.34-.628-5.987 5.64-14.102 5.058-18.397 0 0 7.486 10.184 6.972 18.642-.178 2.9-1.184 5.617-2.99 7.505 5.373-2.633 8.835-8.323 8.835-15.411 0-6.781-5.052-20.41-18.459-29.322.78 8.988-3.13 13.825-6.041 17.425-.578.713-1.122 1.387-1.569 2.02-3.733 5.304-4.931 8.489-4.931 13.109 0 6.446 4.147 11.464 10.357 13.153zM48.106 74C38.192 74 31 67.368 31 58.232c0-5.037 1.337-8.635 5.297-14.26.485-.688 1.05-1.387 1.648-2.126 3.057-3.783 6.864-8.49 5.36-17.985-.06-.384.106-.768.428-.986a1.009 1.009 0 0 1 1.075-.028c8.455 5.08 13.458 11.659 16.166 16.283C64.168 44.584 66 50.369 66 55c0 10.832-7.695 19-17.896 19z" fill-rule="evenodd" fill="#39393a"/>
</svg>
