<svg width="96" height="96" viewBox="0 0 96 96" xmlns="http://www.w3.org/2000/svg">
    <path d="M92 3a1 1 0 0 1 1 1v8a1 1 0 0 1-1 1h-3v6h3a1 1 0 0 1 .993.883L93 20v56a1 1 0 0 1-1 1h-3v6h3a1 1 0 0 1 .993.883L93 84v8a1 1 0 0 1-1 1H64a1 1 0 0 1-1-1v-8a1 1 0 0 1 1-1h3v-6h-3v3a1 1 0 0 1-.883.993L63 81h-7a1 1 0 0 1-1-1v-3h-7a1 1 0 0 1-.993-.883L47 76v-8a1 1 0 0 1 1-1h7V53H17v6h31a1 1 0 0 1 .993.883L49 60a1 1 0 0 1-1 1h-7v7a1 1 0 0 1-.883.993L40 69H4a1 1 0 0 1-1-1V27a1 1 0 0 1 1-1h36a1 1 0 0 1 1 1v8h14v-6h-7a1 1 0 0 1-.993-.883L47 28v-8a1 1 0 0 1 1-1h7v-3a1 1 0 0 1 .883-.993L56 15h7a1 1 0 0 1 1 1v3h3v-6h-3a1 1 0 0 1-1-1V4a1 1 0 0 1 1-1zm-5 74H69v6h11a1 1 0 0 1 .993.883L81 84a1 1 0 0 1-1 1H65v6h26v-6h-3a1 1 0 0 1-1-1v-7zM62 17h-5v62h5V40a1 1 0 0 1 2 0v35h27V21H64v7a1 1 0 0 1-.883.993L63 29a1 1 0 0 1-1-1V17zm-7 52h-6v6h6v-6zm-16-8H17v6h22v-6zM15 28H5v39h10V44a1 1 0 0 1 .883-.993L16 43h39v-6H16a1 1 0 0 1-.993-.883L15 36v-8zm40 17H17v6h38v-6zM39 28H17v7h22v-7zm16-7h-6v6h6v-6zM91 5H65v6h7a1 1 0 0 1 0 2h-3v6h18v-6h-7a1 1 0 0 1 0-2h11V5z" fill-rule="evenodd" fill="#39393a"/>
</svg>
