<svg width="96" height="96" xmlns="http://www.w3.org/2000/svg">
    <path d="M92 3a1 1 0 0 1 .993.883L93 4v8a1 1 0 0 1-.883.993L92 13h-3v6h3a1 1 0 0 1 .993.883L93 20v56a1 1 0 0 1-.883.993L92 77h-3v6h3a1 1 0 0 1 .993.883L93 84v8a1 1 0 0 1-.883.993L92 93H64a1 1 0 0 1-.993-.883L63 92v-8a1 1 0 0 1 .883-.993L64 83h3v-6h-3v3a1 1 0 0 1-.883.993L63 81h-7a1 1 0 0 1-.993-.883L55 80v-3h-7a1 1 0 0 1-.993-.883L47 76v-8a1 1 0 0 1 1-1h7V53H17v6h31a1 1 0 0 1 .993.883L49 60a1 1 0 0 1-.883.993L48 61h-7v7a1 1 0 0 1-.883.993L40 69H4a1 1 0 0 1-.993-.883L3 68V27a1 1 0 0 1 .883-.993L4 26h36a1 1 0 0 1 .993.883L41 27v8h14v-6h-7a1 1 0 0 1-.993-.883L47 28v-8a1 1 0 0 1 .883-.993L48 19h7v-3a1 1 0 0 1 .883-.993L56 15h7a1 1 0 0 1 .993.883L64 16v3h3v-6h-3a1 1 0 0 1-.993-.883L63 12V4a1 1 0 0 1 .883-.993L64 3h28zm-5 74H69v6h11a1 1 0 0 1 .117 1.993L80 85H65v6h26v-6h-3a1 1 0 0 1-1-1v-7zM62 17h-5v62h5V40a1 1 0 0 1 1.993-.117L64 40v35h27V21H64v7a1 1 0 0 1-1.993.117L62 28V17zm-7 52h-6v6h6v-6zm-16-8H17v6h22v-6zM15 28H5v39h10V44a1 1 0 0 1 .883-.993L16 43h39v-6H16a1 1 0 0 1-.993-.883L15 36v-8zm40 17H17v6h38v-6zM39 28H17v7h22v-7zm16-7h-6v6h6v-6zM91 5H65v6h7a1 1 0 0 1 .117 1.993L72 13h-3v6h18v-6h-7a1 1 0 0 1-.117-1.993L80 11h11V5z" fill-rule="evenodd" fill="#39393a"/>
</svg>
