<svg width="62" height="96" viewBox="0 0 62 96" xmlns="http://www.w3.org/2000/svg">
    <path d="M5 49v17c0 1.654 1.347 3 3 3h46c1.655 0 3-1.346 3-3V49h-2v17c0 .551-.447 1-1 1H39V52H29v15H8c-.551 0-1-.449-1-1V49H5zm26 18h6V54h-6v13zm14-7h4v-6h-4v6zm-2 2h8V52h-8v10zm-24-2h4v-6h-4v6zm-6 0h4v-6h-4v6zm12-8v10H11V52h14zm29-25a1 1 0 0 1 .958.713l6 20A1 1 0 0 1 60 49H2a.999.999 0 0 1-.958-1.287l6-20C7.17 27.29 7.56 27 8 27h46zm-.744 2H8.744l-5.4 18h55.313l-5.4-18z" fill-rule="evenodd" fill="#39393a"/>
</svg>
