<svg width="40" height="96" xmlns="http://www.w3.org/2000/svg">
    <g fill-rule="evenodd" fill="#39393a">
        <path d="M20 76C8.867 76 0 73.666 0 70s8.867-6 20-6 20 2.334 20 6-8.867 6-20 6zm0-2c5.027 0 9.73-.523 13.18-1.432C36.294 71.75 38 70.688 38 70c0-.687-1.707-1.75-4.82-2.568C29.73 66.523 25.028 66 20 66c-5.027 0-9.73.523-13.18 1.432C3.706 68.25 2 69.312 2 70c0 .687 1.707 1.75 4.82 2.568C10.27 73.477 14.972 74 20 74zm0-42C8.867 32 0 29.666 0 26s8.867-6 20-6 20 2.334 20 6-8.867 6-20 6zm0-2c5.027 0 9.73-.523 13.18-1.432C36.294 27.75 38 26.688 38 26c0-.687-1.707-1.75-4.82-2.568C29.73 22.523 25.028 22 20 22c-5.027 0-9.73.523-13.18 1.432C3.706 24.25 2 25.312 2 26c0 .687 1.707 1.75 4.82 2.568C10.27 29.477 14.972 30 20 30z"/>
        <path d="M0 26a1 1 0 0 1 2 0v44a1 1 0 0 1-2 0V26zm38 0a1 1 0 0 1 2 0v44a1 1 0 0 1-2 0V26z"/>
    </g>
</svg>
