<svg width="74" height="96" viewBox="0 0 74 96" xmlns="http://www.w3.org/2000/svg">
    <path d="M59.764 11c1.143 0 2.172.635 2.683 1.658l10.724 21.447a1.99 1.99 0 01-.088 1.947 2.013 2.013 0 01-1.701.948H67v45c0 1.654-1.346 3-3 3H10c-1.654 0-3-1.346-3-3V37H2.618a2.014 2.014 0 01-1.702-.949 1.99 1.99 0 01-.087-1.946l10.724-21.447A2.983 2.983 0 0114.236 11zM65 61H9v21a1 1 0 001 1h54a1 1 0 001-1V61zm-52 6c1.803-1.803 8.197-1.803 10 0v10a2 2 0 01-2 2h-6a2 2 0 01-2-2zm19.95 1.636a.999.999 0 111.414 1.414L32.414 72H40a1 1 0 110 2h-7.586l1.95 1.95a.999.999 0 11-1.414 1.414l-3.657-3.657a.999.999 0 010-1.414zM18 74.5a1.5 1.5 0 10.001 3.001A1.5 1.5 0 0018 74.5zM55 64a1 1 0 011 1c0 4.963-4.037 9-9 9a1 1 0 110-2c3.859 0 7-3.141 7-7a1 1 0 011-1zm-35 4h-4v2h4v-2zm45-31H9v22h40V48.295A6.961 6.961 0 0047 48a1 1 0 110-2c.688 0 1.355.085 2 .232V41h12v18h4V37zm-6 6h-8v3.95c2.959 1.476 5 4.525 5 8.05a1 1 0 11-2 0 6.992 6.992 0 00-3-5.736V59h8V43zm-46-1c1.803-1.803 8.197-1.803 10 0v10a2 2 0 01-2 2h-6a2 2 0 01-2-2zm5 7.5a1.5 1.5 0 10.001 3.001A1.5 1.5 0 0018 49.5zM40 46a1 1 0 110 2h-8a1 1 0 110-2zm-20-3h-4v2h4v-2zm39.764-30H14.236a.995.995 0 00-.894.553L2.618 35h68.764L60.658 13.553a.995.995 0 00-.894-.553z" fill-rule="evenodd" fill="#39393a"/>
</svg>
