<svg width="53" height="96" viewBox="0 0 53 96" xmlns="http://www.w3.org/2000/svg">
    <path d="M46.5 16.048V32.52l6.366 11.027a.998.998 0 0 1-.866 1.5h-3.5v40c0 1.654-1.345 3-3 3h-38c-1.654 0-3-1.346-3-3v-40H1a1 1 0 0 1-.866-1.5l3.365-5.831v-13.67h7.892l3.754-6.5a1 1 0 0 1 .866-.5h20.978a1 1 0 0 1 .866.5l2.644 4.581v-6.08h6zm0 29h-40v40c0 .55.448 1 1 1h23v-15h10v15h5c.552 0 1-.45 1-1v-40zm-8 28h-6v13h6v-13zm-14-2v10h-14v-10h14zm-2 2h-4v6h4v-6zm-6 0h-4v6h4v-6zm8-22v10h-14v-10h14zm18 0v10h-14v-10h14zm-20 2h-4v6h4v-6zm-6 0h-4v6h4v-6zm24 0h-4v6h4v-6zm-6 0h-4v6h4v-6zm1.912-34H16.588l-13.856 24h47.536l-13.856-24zm-5.912 7v10h-8v-10h8zm-2 2h-4v6h4v-6zM29.5 7c.6 0 1 .41 1 1.025v5.95c0 .615-.4 1.025-1 1.025s-1-.41-1-1.025v-5.95c0-.615.4-1.025 1-1.025zm12 0c.6 0 1 .41 1 1.025v5.95c0 .615-.4 1.025-1 1.025s-1-.41-1-1.025v-5.95c0-.615.4-1.025 1-1.025zm-8 3c.549 0 1 .451 1 1 0 .549-.451 1-1 1-.548 0-1-.451-1-1 0-.549.452-1 1-1zm4 0c.549 0 1 .451 1 1 0 .549-.451 1-1 1-.548 0-1-.451-1-1 0-.549.452-1 1-1z" fill-rule="evenodd" fill="#39393a"/>
</svg>
