<svg width="54" height="96" xmlns="http://www.w3.org/2000/svg">
    <path d="M3 37h48L27 20 3 37zm44 39V39H7v37c0 .551.448 1 1 1h23V62h10v15h5c.552 0 1-.449 1-1zm-14 1h6V64h-6v13zm19.157-41.632A2.001 2.001 0 0 1 51 39h-2v37c0 1.654-1.346 3-3 3H8c-1.654 0-3-1.346-3-3V39H3a2 2 0 0 1-1.155-3.632l24-17a2.001 2.001 0 0 1 2.313 0L36 23.924V20h5v7.466l11.157 7.902zM19.002 70h4v-6h-4v6zm-6 0h4v-6h-4v6zm-2 2V62h14v10h-14zm8-22h4v-6h-4v6zm-6 0h4v-6h-4v6zm-2 2V42h14v10h-14zm26-2h4v-6h-4v6zm-6 0h4v-6h-4v6zm-2 2V42h14v10h-14z" fill-rule="evenodd" fill="#39393a"/>
</svg>
