<svg width="54" height="96" xmlns="http://www.w3.org/2000/svg">
    <path d="M27 18a2 2 0 011.005.27l.152.098 7.844 5.556V20h5v7.466l11.157 7.902a2.001 2.001 0 01-.995 3.625L51 39h-2v37a3.004 3.004 0 01-2.824 2.995l-.175.005H8a3.004 3.004 0 01-2.995-2.824L5 76V39H3a2 2 0 01-1.284-3.533l.129-.099 24-17A2.001 2.001 0 0127 18zm20 21H7v37c0 .512.387.935.884.993L8 77h23V62h10v15h5c.513 0 .936-.387.994-.884L47 76V39zm-8 25h-6v13h6V64zm-13.999-2v10h-14V62h14zm-2 2h-4v6h4v-6zm-6 0h-4v6h4v-6zm8-22v10h-14V42h14zm18 0v10h-14V42h14zm-20 2h-4v6h4v-6zm-6 0h-4v6h4v-6zm24 0h-4v6h4v-6zm-6 0h-4v6h4v-6zm-8-24L3 37h48L27 20z" fill-rule="evenodd" fill="#39393a"/>
</svg>
