<svg width="64" height="96" xmlns="http://www.w3.org/2000/svg">
    <path d="M52 77V19H12v68h40V77zm2 2v8a2 2 0 0 1-2 2H12a2 2 0 0 1-2-2v-8H0v-2h10V9a2 2 0 0 1 2-2h40a2 2 0 0 1 2 2v68h10v2H54zM16 67V56h8v11h-8zm2-2h4v-7h-4v7zm10 2V56h8v11h-8zm2-2h4v-7h-4v7zm10 2V56h8v11h-8zm2-2h4v-7h-4v7zm-2-14V40h8v11h-8zm2-2h4v-7h-4v7zm-2-14V24h8v11h-8zm2-2h4v-7h-4v7zM16 51V40h8v11h-8zm2-2h4v-7h-4v7zm10 2V40h8v11h-8zm2-2h4v-7h-4v7zM16 35V24h8v11h-8zm2-2h4v-7h-4v7zm10 2V24h8v11h-8zm2-2h4v-7h-4v7zm10 54V72h8v15h-8zm-24-4V72h8v11h-8zm12 0V72h8v11h-8z" fill-rule="evenodd" fill="#39393a"/>
</svg>
