<svg width="62" height="96" viewBox="0 0 62 96" xmlns="http://www.w3.org/2000/svg">
    <path d="M42 9.657v6h5a1 1 0 011 1v68c0 1.654-1.346 3-3 3H3c-1.654 0-3-1.346-3-3v-68a1 1 0 011-1h34v-6h7zm4 22H2v53a1 1 0 001 1h31v-16h8v16h3a1 1 0 001-1v-53zm-6 40h-4v14h4v-14zm-26-2v10H6v-10h8zm14 0v10h-8v-10h8zm-16 2H8v6h4v-6zm14 0h-4v6h4v-6zm16-18v10h-8v-10h8zm-28 0v10H6v-10h8zm14 0v10h-8v-10h8zm12 2h-4v6h4v-6zm-28 0H8v6h4v-6zm14 0h-4v6h4v-6zm16-18v10h-8v-10h8zm-28 0v10H6v-10h8zm14 0v10h-8v-10h8zm12 2h-4v6h4v-6zm-28 0H8v6h4v-6zm14 0h-4v6h4v-6zm9-22H2v12h44v-12h-4v5h-7v-5zm19.95-8.364a.999.999 0 111.414 1.414l-1.95 1.95H61a1 1 0 110 2h-6.586l1.95 1.95a.999.999 0 11-1.414 1.414l-3.656-3.656a1 1 0 010-1.416z" fill-rule="evenodd" fill="#39393a"/>
</svg>
