<svg width="62" height="96" xmlns="http://www.w3.org/2000/svg">
    <path d="M42 85.657h3a1 1 0 0 0 1-1v-53H2v53a1 1 0 0 0 1 1h31v-16h8v16zm-6 0h4v-14h-4v14zm-34-68v12h44v-12h-4v5h-7v-5H2zm40-2h5a1 1 0 0 1 1 1v68c0 1.654-1.346 3-3 3H3c-1.654 0-3-1.346-3-3v-68a1 1 0 0 1 1-1h34v-6h7v6zm-34 62h4v-6H8v6zm-2 2v-10h8v10H6zm16-2h4v-6h-4v6zm-2 2v-10h8v10h-8zm16-18h4v-6h-4v6zm-2 2v-10h8v10h-8zm-26-2h4v-6H8v6zm-2 2v-10h8v10H6zm16-2h4v-6h-4v6zm-2 2v-10h8v10h-8zm16-18h4v-6h-4v6zm-2 2v-10h8v10h-8zm-26-2h4v-6H8v6zm-2 2v-10h8v10H6zm16-2h4v-6h-4v6zm-2 2v-10h8v10h-8zm34.414-35H61a1 1 0 1 1 0 2h-6.586l1.95 1.95a.999.999 0 1 1-1.414 1.414l-3.656-3.656a1 1 0 0 1 0-1.416l3.656-3.656a.999.999 0 1 1 1.414 1.414l-1.95 1.95z" fill-rule="evenodd" fill="#39393a"/>
</svg>
