<svg width="64" height="96" xmlns="http://www.w3.org/2000/svg">
    <path d="M52 7c1.054 0 1.918.816 1.995 1.85L54 9v36h10v2H54v40a2.001 2.001 0 0 1-1.85 1.995L52 89H12a2.001 2.001 0 0 1-1.995-1.85L10 87V47H0v-2h10V9c0-1.054.816-1.918 1.85-1.995L12 7h40zm0 12H12v68h28V72h8v15h4V19zm-6 55h-4v13h4V74zm-22-2v11h-8V72h8zm12 0v11h-8V72h8zm-14 2h-4v7h4v-7zm12 0h-4v7h4v-7zM24 56v11h-8V56h8zm12 0v11h-8V56h8zm12 0v11h-8V56h8zm-26 2h-4v7h4v-7zm12 0h-4v7h4v-7zm12 0h-4v7h4v-7zm2-18v11h-8V40h8zm-24 0v11h-8V40h8zm12 0v11h-8V40h8zm12-16v11h-8V24h8zm-24 0v11h-8V24h8zm12 0v11h-8V24h8zm10 2h-4v7h4v-7zm-24 0h-4v7h4v-7zm12 0h-4v7h4v-7z" fill-rule="evenodd" fill="#39393a"/>
</svg>
