<svg width="64" height="96" viewBox="0 0 64 96" xmlns="http://www.w3.org/2000/svg">
    <path d="M52 7a2 2 0 012 2v52h10v2H54v24a2.001 2.001 0 01-1.85 1.995L52 89H12a2 2 0 01-2-2V63H0v-2h10V9c0-1.054.816-1.918 1.85-1.995L12 7zm0 12H12v68h28V72h8v15h4V19zm-6 55h-4v13h4V74zm-22-2v11h-8V72h8zm12 0v11h-8V72h8zm-14 2h-4v7h4v-7zm12 0h-4v7h4v-7zM24 56v11h-8V56h8zm12 0v11h-8V56h8zm12 0v11h-8V56h8zm0-16v11h-8V40h8zm-24 0v11h-8V40h8zm12 0v11h-8V40h8zm10 2h-4v7h4v-7zm-24 0h-4v7h4v-7zm12 0h-4v7h4v-7zm14-18v11h-8V24h8zm-24 0v11h-8V24h8zm12 0v11h-8V24h8zm10 2h-4v7h4v-7zm-24 0h-4v7h4v-7zm12 0h-4v7h4v-7z" fill-rule="evenodd" fill="#39393a"/>
</svg>
