<svg width="64" height="96" xmlns="http://www.w3.org/2000/svg">
    <path d="M0 24l64 5.518v2.006l-4-.345V71.09h-2V31.007L2 26.18v44.91H0V24zm30.867 18.798c5.222-1.361 11.176-1.326 16.266 0 .668.175 1.2.68 1.406 1.34l2.18 6.974 1.536-.888a1 1 0 011 1.732l-1.732 1a.908.908 0 01-.203.084l.434 1.39c1.222 3.912 1.086 2.715.02 11.66H50v2a1 1 0 01-1 1h-2a1 1 0 01-1-1v-2H32v2a1 1 0 01-1 1h-2a1 1 0 01-1-1v-2h-1.775c-1.058-8.884-1.218-7.694.021-11.66l.433-1.39a.928.928 0 01-.203-.084l-1.732-1a1.001 1.001 0 011-1.732l1.538.888c.92-2.944 2.122-6.793 2.18-6.974a2.005 2.005 0 011.405-1.34zM17.848 46.95l.152.139v10a2.001 2.001 0 01-1.85 1.995l-.15.005h-6a2 2 0 01-1.995-1.85L8 57.09v-10c1.756-1.756 7.864-1.802 9.848-.139zM13 54.59a1.5 1.5 0 10.001 3.001A1.5 1.5 0 0013 54.59zm36.507.5a1.002 1.002 0 00-1.367-.366l-1.732 1a.999.999 0 00.501 1.866c.17 0 .342-.043.5-.134l1.731-1a1 1 0 00.367-1.366zm-19.648-.366a1 1 0 00-1 1.732l1.733 1a1 1 0 001-1.732zm16.216-10.128c-2.128-.511-7.819-1.527-14.15-.001a1.003 1.003 0 00-.722.675l-2.13 6.82h19.855l-2.13-6.82a1.003 1.003 0 00-.723-.674zM15 48.09h-4v2h4v-2z" fill-rule="evenodd" fill="#39393a"/>
</svg>
