<svg width="72" height="96" xmlns="http://www.w3.org/2000/svg">
    <path d="M70 62H36v12h34V62zm0-2V24.76a64.93 64.93 0 0 0-34 0V60h34zM58 37a1 1 0 0 1-1 1h-8a1 1 0 0 1-1-1v-3a1 1 0 0 1 1-1h8a1 1 0 0 1 1 1v3zm-5 33a2 2 0 1 1 .001-4.001A2 2 0 0 1 53 70zm-17 6c-1.103 0-2-.897-2-2V24a1 1 0 0 1 .728-.962 66.966 66.966 0 0 1 36.544 0A1 1 0 0 1 72 24v50c0 1.103-.897 2-2 2H36zM1 22.497h10a1 1 0 0 1 0 2H1a1 1 0 0 1 0-2zm18 0h8a1 1 0 0 1 0 2h-8a1 1 0 0 1 0-2zm-8 10h16a1 1 0 0 1 0 2H11a1 1 0 0 1 0-2zM1 42h10a1 1 0 0 1 0 2H1a1 1 0 0 1 0-2zm19 0h7a1 1 0 0 1 0 2h-7a1 1 0 0 1 0-2zM1 52h16a1 1 0 0 1 0 2H1a1 1 0 0 1 0-2zm9 10h17a1 1 0 0 1 0 2H10a1 1 0 0 1 0-2zM1 72h23a1 1 0 0 1 0 2H1a1 1 0 0 1 0-2z" fill-rule="evenodd" fill="#39393a"/>
</svg>
