<svg width="72" height="96" xmlns="http://www.w3.org/2000/svg">
    <path d="M56 63.983a35.154 35.154 0 0 1-13.41-3.071A1 1 0 0 1 42 60V21a1 1 0 0 1 .59-.912 35.2 35.2 0 0 1 28.82 0A1 1 0 0 1 72 21v39a1 1 0 0 1-.59.912A35.154 35.154 0 0 1 58 63.982V69c0 1.103-.897 2-2 2H40v-2h16v-5.017zM36 66H2v12h34V66zm0-2V28.76a64.93 64.93 0 0 0-34 0V64h34zM24 41a1 1 0 0 1-1 1h-8a1 1 0 0 1-1-1v-3a1 1 0 0 1 1-1h8a1 1 0 0 1 1 1v3zm-5 33a2 2 0 1 1 .001-4.001A2 2 0 0 1 19 74zm38-17a2 2 0 1 1 .001-4.001A2 2 0 0 1 57 57zM38 78c0 1.103-.897 2-2 2H2c-1.103 0-2-.897-2-2V28a1 1 0 0 1 .728-.962 66.966 66.966 0 0 1 36.544 0A1 1 0 0 1 38 28v50zm6-18.654a33.18 33.18 0 0 0 26 0V21.655a33.171 33.171 0 0 0-26 0v37.69z" fill-rule="evenodd" fill="#39393a"/>
</svg>
