<svg width="52" height="96" xmlns="http://www.w3.org/2000/svg">
    <path d="M6 39v37c0 .512.387.935.884.993L7 77h23V62h10v15h5c.513 0 .936-.387.994-.884L46 76V39H6zm32 25h-6v13h6V64zm-13.999-2v10h-14V62h14zm-2 2h-4v6h4v-6zm-6 0h-4v6h4v-6zm8-22v10h-14V42h14zm18 0v10h-14V42h14zm-20 2h-4v6h4v-6zm-6 0h-4v6h4v-6zm24 0h-4v6h4v-6zm-6 0h-4v6h4v-6zM50 35H3v2h47v-2zm-2 41a3.004 3.004 0 0 1-2.824 2.995l-.175.005H7a3.004 3.004 0 0 1-2.995-2.824L4 76V39H2a1 1 0 0 1-1-1v-4a1 1 0 0 1 1-1h49a1 1 0 0 1 1 1v4a1 1 0 0 1-1 1h-3v37zM37 26h5v7h-5v-7z" fill-rule="evenodd" fill="#39393a"/>
</svg>
