<svg width="58" height="96" viewBox="0 0 58 96" xmlns="http://www.w3.org/2000/svg">
    <path d="M50.645 22a2 2 0 0 1 1.857 1.257l4.401 11A2.002 2.002 0 0 1 55.045 37H54v39c0 1.654-1.346 3-3 3H31c-.768 0-1.47-.29-2.001-.767l-.124.107A2.986 2.986 0 0 1 27 79H7c-1.655 0-3-1.346-3-3V37H2.954a2 2 0 0 1-1.857-2.743l4.4-11A2 2 0 0 1 7.353 22zM52 37H30v39a1 1 0 0 0 1 1h5V62h10v15h5c.552 0 1-.449 1-1V37zm-24 0H6v39c0 .551.448 1 1 1h5V62h10v15h5c.552 0 1-.449 1-1V37zm16 27h-6v13h6V64zm-24 0h-6v13h6V64zm28-22v10H34V42h14zm-24 0v10H10V42h14zm22 2h-4v6h4v-6zm-6 0h-4v6h4v-6zm-24 0h-4v6h4v-6zm6 0h-4v6h4v-6zm5.999-20H7.353L2.954 35H28l-.001-11zm22.646 0H30v11h25.046l-4.4-11z" fill-rule="evenodd" fill="#39393a"/>
</svg>
