<svg width="50" height="96" xmlns="http://www.w3.org/2000/svg">
    <path d="M20.99 47h24.02c-1.969-4.769-6.64-8-12.01-8a12.955 12.955 0 0 0-12.01 8zm-.643 2c-.064.274-.12.552-.167.834A.999.999 0 0 0 21.168 51h23.664a.997.997 0 0 0 .988-1.165 13.23 13.23 0 0 0-.168-.835H20.347zm15.64-11.705c6 1.203 10.76 5.97 11.806 12.209A2.998 2.998 0 0 1 44.832 53H21.168a2.993 2.993 0 0 1-2.29-1.062 2.994 2.994 0 0 1-.671-2.435A14.936 14.936 0 0 1 29.98 37.302C29.617 31.008 24.383 26 18 26c-6.617 0-12 5.383-12 12v38H4V38c0-7.72 6.28-14 14-14 7.396 0 13.47 5.763 13.967 13.035a15.337 15.337 0 0 1 2.004-.004C33.468 28.658 26.497 22 18 22 9.178 22 2 29.178 2 38v38H0V38c0-9.925 8.075-18 18-18 9.689 0 17.615 7.695 17.986 17.295zM24.5 57.5a1.5 1.5 0 1 1-3.001-.001 1.5 1.5 0 0 1 3.001.001zm5 0a1.5 1.5 0 1 1-3.001-.001 1.5 1.5 0 0 1 3.001.001zm5 0a1.5 1.5 0 1 1-3.001-.001 1.5 1.5 0 0 1 3.001.001zm5 0a1.5 1.5 0 1 1-3.001-.001 1.5 1.5 0 0 1 3.001.001zm5 0a1.5 1.5 0 1 1-3.001-.001 1.5 1.5 0 0 1 3.001.001zm-21.806 5.667a1.5 1.5 0 1 1-3-.001 1.5 1.5 0 0 1 3 .001zm5.904 0a1.5 1.5 0 1 1-3.001-.001 1.5 1.5 0 0 1 3 .001zm5.902 0a1.5 1.5 0 1 1-3.001-.001 1.5 1.5 0 0 1 3.001.001zm5.903 0a1.5 1.5 0 1 1-3-.001 1.5 1.5 0 0 1 3 .001zm6.097 0a1.5 1.5 0 1 1-3.001-.001 1.5 1.5 0 0 1 3.001.001zm-25.611 5.666a1.5 1.5 0 1 1-3 0 1.5 1.5 0 0 1 3 0zm6.805 0a1.5 1.5 0 1 1-3 0 1.5 1.5 0 0 1 3 0zm6.806 0a1.5 1.5 0 1 1-3 0 1.5 1.5 0 0 1 3 0zm6.806 0a1.5 1.5 0 1 1-2.999.001 1.5 1.5 0 0 1 2.999-.001zm6.903 0a1.5 1.5 0 1 1-3 0 1.5 1.5 0 0 1 3 0zM19.083 74.5a1.5 1.5 0 1 1-3.001-.001 1.5 1.5 0 0 1 3.001.001zm7.708 0a1.5 1.5 0 1 1-3 0 1.5 1.5 0 0 1 3 0zm7.709 0a1.5 1.5 0 1 1-3.001-.001 1.5 1.5 0 0 1 3.001.001zm7.709 0a1.5 1.5 0 1 1-3.001-.001 1.5 1.5 0 0 1 3.001.001zm7.708 0a1.5 1.5 0 1 1-3 0 1.5 1.5 0 0 1 3 0z" fill-rule="evenodd" fill="#39393a"/>
</svg>
