<svg width="50" height="96" xmlns="http://www.w3.org/2000/svg">
    <path d="M18 20c9.689 0 17.614 7.695 17.986 17.294a14.94 14.94 0 0 1 11.807 12.21A2.998 2.998 0 0 1 44.832 53H21.168a2.993 2.993 0 0 1-2.29-1.062 2.994 2.994 0 0 1-.671-2.435 14.936 14.936 0 0 1 11.772-12.201C29.618 31.009 24.383 26 18 26c-6.617 0-12 5.383-12 12v38H4V38c0-7.72 6.28-14 14-14 7.396 0 13.47 5.764 13.967 13.035a14.903 14.903 0 0 1 2.003-.004C33.47 28.659 26.497 22 18 22 9.178 22 2 29.178 2 38v38H0V38c0-9.925 8.075-18 18-18zm-.417 53a1.5 1.5 0 1 1-.001 3.001A1.5 1.5 0 0 1 17.583 73zm7.708 0a1.5 1.5 0 1 1 0 3 1.5 1.5 0 0 1 0-3zM33 73a1.5 1.5 0 1 1-.001 3.001A1.5 1.5 0 0 1 33 73zm7.709 0a1.5 1.5 0 1 1-.001 3.001A1.5 1.5 0 0 1 40.709 73zm7.708 0a1.5 1.5 0 1 1 0 3 1.5 1.5 0 0 1 0-3zm-29.028-5.667a1.5 1.5 0 1 1-.001 3.001 1.5 1.5 0 0 1 0-3.001zm6.805 0a1.5 1.5 0 1 1 0 3.001 1.5 1.5 0 0 1 0-3.001zm6.806 0a1.5 1.5 0 1 1-.001 3.001A1.5 1.5 0 0 1 33 67.333zm6.806 0a1.5 1.5 0 1 1 0 3 1.5 1.5 0 0 1 0-3zm6.903 0a1.5 1.5 0 1 1-.001 3.001 1.5 1.5 0 0 1 .001-3.001zm-25.515-5.666a1.5 1.5 0 1 1 0 3 1.5 1.5 0 0 1 0-3zm5.904 0a1.5 1.5 0 1 1 0 3 1.5 1.5 0 0 1 0-3zm5.902 0a1.5 1.5 0 1 1 0 3 1.5 1.5 0 0 1 0-3zm5.903 0a1.5 1.5 0 1 1 0 3 1.5 1.5 0 0 1 0-3zm6.097 0a1.5 1.5 0 1 1 0 3 1.5 1.5 0 0 1 0-3zM23 56a1.5 1.5 0 1 1-.001 3.001A1.5 1.5 0 0 1 23 56zm5 0a1.5 1.5 0 1 1-.001 3.001A1.5 1.5 0 0 1 28 56zm5 0a1.5 1.5 0 1 1-.001 3.001A1.5 1.5 0 0 1 33 56zm5 0a1.5 1.5 0 1 1-.001 3.001A1.5 1.5 0 0 1 38 56zm5 0a1.5 1.5 0 1 1-.001 3.001A1.5 1.5 0 0 1 43 56zm2.652-7H20.347c-.064.275-.12.553-.167.834A.999.999 0 0 0 21.168 51h23.664a.997.997 0 0 0 .988-1.165 13.23 13.23 0 0 0-.168-.835zM33 39a12.955 12.955 0 0 0-12.01 8h24.02c-1.969-4.769-6.64-8-12.01-8z" fill-rule="evenodd" fill="#39393a"/>
</svg>
