<svg width="58" height="96" xmlns="http://www.w3.org/2000/svg">
    <path d="M28 24H7.353L2.954 35h52.091l-4.4-11H30v11h-2V24zm1 54.234A2.988 2.988 0 0 1 27 79H7c-1.655 0-3-1.346-3-3V37h2v39c0 .551.448 1 1 1h5V62h10v15h5c.552 0 1-.449 1-1V37h2v39a1 1 0 0 0 1 1h5V62h10v15h5c.552 0 1-.449 1-1V37h2v39c0 1.654-1.346 3-3 3H31c-.768 0-1.47-.29-2-.766zM34 52V42h14v10H34zm-24 0V42h14v10H10zm40.645-30a2 2 0 0 1 1.857 1.257l4.401 11A2.002 2.002 0 0 1 55.045 37H2.955a2 2 0 0 1-1.858-2.743l4.4-11A2 2 0 0 1 7.353 22h43.292zM42 50h4v-6h-4v6zm-6 0h4v-6h-4v6zm-24 0h4v-6h-4v6zm6 0h4v-6h-4v6zm20 27h6V64h-6v13zm-24 0h6V64h-6v13z" fill-rule="evenodd" fill="#39393a"/>
</svg>
