<svg width="92" height="96" xmlns="http://www.w3.org/2000/svg">
    <g fill-rule="evenodd" fill="#39393a">
        <path d="M86 84h3a1 1 0 0 0 1-1V24H62v59a1 1 0 0 0 1 1h15V66h8v18zm-8-26V48h8v10h-8zm2-2h4v-6h-4v6zm0 28h4V68h-4v16zM66 58V48h8v10h-8zm2-2h4v-6h-4v6zm10-16V30h8v10h-8zm2-2h4v-6h-4v6zm-14 2V30h8v10h-8zm2-2h4v-6h-4v6zm-2 38V66h8v10h-8zm2-2h4v-6h-4v6zm21 12H63c-1.654 0-3-1.346-3-3V22h32v61c0 1.654-1.346 3-3 3zm-4.401-74.177L91.999 22H60l7.403-10.177A2 2 0 0 1 69.019 11h13.963a2 2 0 0 1 1.617.823zM26 84h3a1 1 0 0 0 1-1V24H2v59a1 1 0 0 0 1 1h15V66h8v18zm-8-26V48h8v10h-8zm2-2h4v-6h-4v6zm0 28h4V68h-4v16zM6 58V48h8v10H6zm2-2h4v-6H8v6zm10-16V30h8v10h-8zm2-2h4v-6h-4v6zM6 40V30h8v10H6zm2-2h4v-6H8v6zM6 76V66h8v10H6zm2-2h4v-6H8v6zm21 12H3c-1.654 0-3-1.346-3-3V22h32v61c0 1.654-1.346 3-3 3zm-4.401-74.177L31.999 22H0l7.403-10.177A2 2 0 0 1 9.019 11h13.963a2 2 0 0 1 1.617.823z"/>
        <path d="M56 84h3a1 1 0 0 0 1-1V24H32v59a1 1 0 0 0 1 1h15V66h8v18zm-8-26V48h8v10h-8zm2-2h4v-6h-4v6zm0 28h4V68h-4v16zM36 58V48h8v10h-8zm2-2h4v-6h-4v6zm10-16V30h8v10h-8zm2-2h4v-6h-4v6zm-14 2V30h8v10h-8zm2-2h4v-6h-4v6zm-2 38V66h8v10h-8zm2-2h4v-6h-4v6zm21 12H33c-1.654 0-3-1.346-3-3V22h32v61c0 1.654-1.346 3-3 3zm-4.401-74.177L61.999 22H30l7.403-10.177A2 2 0 0 1 39.019 11h13.963a2 2 0 0 1 1.617.823z"/>
    </g>
</svg>
