<svg width="74" height="96" xmlns="http://www.w3.org/2000/svg">
    <path d="M16 46h4v-2h-4v2zm2 7.5a1.5 1.5 0 1 0 0-3.001 1.5 1.5 0 0 0 0 3.001zM13 43c1.803-1.803 8.198-1.803 10 0v10a2 2 0 0 1-2 2h-6a2 2 0 0 1-2-2V43zm41-21h4v-2h-4v2zm2 7.5a1.5 1.5 0 1 0 0-3.001 1.5 1.5 0 0 0 0 3.001zM51 19c1.803-1.803 8.198-1.803 10 0v10a2 2 0 0 1-2 2h-6a2 2 0 0 1-2-2V19zM36 33a1 1 0 0 1 1 1v6a1 1 0 1 1-2 0v-6a1 1 0 0 1 1-1zm0 11a1 1 0 0 1 1 1c0 2.757-2.243 5-5 5h-5a1 1 0 1 1 0-2h5c1.654 0 3-1.346 3-3a1 1 0 0 1 1-1zm8.707-23.364l3.657 3.657a.999.999 0 0 1 0 1.414l-3.657 3.658a.996.996 0 0 1-.707.292 1 1 0 0 1-.707-1.707l1.95-1.95H40c-1.654 0-3 1.346-3 3a1 1 0 1 1-2 0c0-2.757 2.243-5 5-5h5.243l-1.95-1.95a.999.999 0 1 1 1.414-1.414zM45 35h26.382L60.658 13.553a.995.995 0 0 0-.894-.553H14.236a.995.995 0 0 0-.894.553L2.618 35H29a1 1 0 1 1 0 2H9v22h56V37H45a1 1 0 1 1 0-2zm19 48a1 1 0 0 0 1-1V61H9v21a1 1 0 0 0 1 1h54zm9.171-48.894a2.011 2.011 0 0 1-.089 1.947 2.009 2.009 0 0 1-1.7.947H67v45c0 1.654-1.346 3-3 3H10c-1.654 0-3-1.346-3-3V37H2.618a2.012 2.012 0 0 1-1.702-.949 2.011 2.011 0 0 1-.087-1.946l10.724-21.447A2.983 2.983 0 0 1 14.236 11h45.528c1.143 0 2.172.635 2.683 1.658l10.724 21.448z" fill-rule="evenodd" fill="#39393a"/>
</svg>
